<svg width="859.52" height="517.12" viewBox="0 0 1343 808" xmlns="http://www.w3.org/2000/svg">
<rect x="0" y="0" width="1343" height="808" fill="#ffffff"/>
<rect x="0" y="0" width="1342.19" height="807.812" fill="rgba(255,255,255,1.000000)"/>
<polygon points="174.219,717.969 1213.28,717.969 1213.28,60.1562 174.219,60.1562 " fill="rgba(255,255,255,1.000000)"/>
<circle cx="178.599" cy="259.944" r="6.25" fill="rgba(62,38,168,1.000000)"/>
<circle cx="177.101" cy="260.467" r="6.25" fill="rgba(62,38,168,1.000000)"/>
<circle cx="194.25" cy="268.497" r="6.25" fill="rgba(62,38,168,1.000000)"/>
<circle cx="204.032" cy="289.408" r="6.25" fill="rgba(62,38,168,1.000000)"/>
<circle cx="211.586" cy="293.217" r="6.25" fill="rgba(62,38,168,1.000000)"/>
<circle cx="210.435" cy="306.712" r="6.25" fill="rgba(62,38,168,1.000000)"/>
<circle cx="220.45" cy="314.38" r="6.25" fill="rgba(62,38,168,1.000000)"/>
<circle cx="230.646" cy="324.691" r="6.25" fill="rgba(62,38,168,1.000000)"/>
<circle cx="235.87" cy="332.788" r="6.25" fill="rgba(62,38,168,1.000000)"/>
<circle cx="244.641" cy="344.849" r="6.25" fill="rgba(62,38,168,1.000000)"/>
<circle cx="240.714" cy="344.746" r="6.25" fill="rgba(62,38,168,1.000000)"/>
<circle cx="252.513" cy="364.337" r="6.25" fill="rgba(62,38,168,1.000000)"/>
<circle cx="255.983" cy="364.384" r="6.25" fill="rgba(62,38,168,1.000000)"/>
<circle cx="276.637" cy="379.631" r="6.25" fill="rgba(62,38,168,1.000000)"/>
<circle cx="276.065" cy="382.601" r="6.25" fill="rgba(62,38,168,1.000000)"/>
<circle cx="288.586" cy="394.474" r="6.25" fill="rgba(62,38,168,1.000000)"/>
<circle cx="289.017" cy="400.902" r="6.25" fill="rgba(62,38,168,1.000000)"/>
<circle cx="297.969" cy="406.3" r="6.25" fill="rgba(62,38,168,1.000000)"/>
<circle cx="299.813" cy="419.963" r="6.25" fill="rgba(62,38,168,1.000000)"/>
<circle cx="313.027" cy="426.859" r="6.25" fill="rgba(62,38,168,1.000000)"/>
<circle cx="330.243" cy="421.761" r="6.25" fill="rgba(62,38,168,1.000000)"/>
<circle cx="325.584" cy="435.629" r="6.25" fill="rgba(62,38,168,1.000000)"/>
<circle cx="334.704" cy="445.351" r="6.25" fill="rgba(62,38,168,1.000000)"/>
<circle cx="352.046" cy="440.573" r="6.25" fill="rgba(62,38,168,1.000000)"/>
<circle cx="344.828" cy="444.073" r="6.25" fill="rgba(62,38,168,1.000000)"/>
<circle cx="352.817" cy="450.327" r="6.25" fill="rgba(62,38,168,1.000000)"/>
<circle cx="369.603" cy="456.764" r="6.25" fill="rgba(62,38,168,1.000000)"/>
<circle cx="381.081" cy="471.058" r="6.25" fill="rgba(62,38,168,1.000000)"/>
<circle cx="374.206" cy="461.293" r="6.25" fill="rgba(62,38,168,1.000000)"/>
<circle cx="393.856" cy="470.129" r="6.25" fill="rgba(62,38,168,1.000000)"/>
<circle cx="402.393" cy="467.65" r="6.25" fill="rgba(62,38,168,1.000000)"/>
<circle cx="397.636" cy="475.644" r="6.25" fill="rgba(62,38,168,1.000000)"/>
<circle cx="414.686" cy="486.79" r="6.25" fill="rgba(62,38,168,1.000000)"/>
<circle cx="419.691" cy="472.032" r="6.25" fill="rgba(62,38,168,1.000000)"/>
<circle cx="426.645" cy="487.385" r="6.25" fill="rgba(62,38,168,1.000000)"/>
<circle cx="441.957" cy="478.749" r="6.25" fill="rgba(62,38,168,1.000000)"/>
<circle cx="433.585" cy="484.865" r="6.25" fill="rgba(62,38,168,1.000000)"/>
<circle cx="445.112" cy="487.148" r="6.25" fill="rgba(62,38,168,1.000000)"/>
<circle cx="460.252" cy="487.085" r="6.25" fill="rgba(62,38,168,1.000000)"/>
<circle cx="461.277" cy="477.165" r="6.25" fill="rgba(62,38,168,1.000000)"/>
<circle cx="467.93" cy="481.596" r="6.25" fill="rgba(62,38,168,1.000000)"/>
<circle cx="482.295" cy="474.408" r="6.25" fill="rgba(62,38,168,1.000000)"/>
<circle cx="493.427" cy="466.579" r="6.25" fill="rgba(62,38,168,1.000000)"/>
<circle cx="489.714" cy="475.771" r="6.25" fill="rgba(62,38,168,1.000000)"/>
<circle cx="500.689" cy="473.788" r="6.25" fill="rgba(62,38,168,1.000000)"/>
<circle cx="504.735" cy="465.493" r="6.25" fill="rgba(62,38,168,1.000000)"/>
<circle cx="514.266" cy="456.294" r="6.25" fill="rgba(62,38,168,1.000000)"/>
<circle cx="525.433" cy="447.551" r="6.25" fill="rgba(62,38,168,1.000000)"/>
<circle cx="535.651" cy="455.497" r="6.25" fill="rgba(62,38,168,1.000000)"/>
<circle cx="531.435" cy="445.237" r="6.25" fill="rgba(62,38,168,1.000000)"/>
<circle cx="549.104" cy="442.471" r="6.25" fill="rgba(62,38,168,1.000000)"/>
<circle cx="554.264" cy="437.6" r="6.25" fill="rgba(62,38,168,1.000000)"/>
<circle cx="554.915" cy="429.438" r="6.25" fill="rgba(62,38,168,1.000000)"/>
<circle cx="561.706" cy="414.598" r="6.25" fill="rgba(62,38,168,1.000000)"/>
<circle cx="571.576" cy="419.14" r="6.25" fill="rgba(62,38,168,1.000000)"/>
<circle cx="577.465" cy="398.903" r="6.25" fill="rgba(62,38,168,1.000000)"/>
<circle cx="597.717" cy="391.813" r="6.25" fill="rgba(62,38,168,1.000000)"/>
<circle cx="601.088" cy="386.387" r="6.25" fill="rgba(62,38,168,1.000000)"/>
<circle cx="601.207" cy="384.585" r="6.25" fill="rgba(62,38,168,1.000000)"/>
<circle cx="614.129" cy="378.309" r="6.25" fill="rgba(62,38,168,1.000000)"/>
<circle cx="621.366" cy="357.214" r="6.25" fill="rgba(62,38,168,1.000000)"/>
<circle cx="620.799" cy="362.411" r="6.25" fill="rgba(62,38,168,1.000000)"/>
<circle cx="640.931" cy="346.735" r="6.25" fill="rgba(62,38,168,1.000000)"/>
<circle cx="641.184" cy="339.466" r="6.25" fill="rgba(62,38,168,1.000000)"/>
<circle cx="644.314" cy="333.489" r="6.25" fill="rgba(62,38,168,1.000000)"/>
<circle cx="652.517" cy="310.701" r="6.25" fill="rgba(62,38,168,1.000000)"/>
<circle cx="664.917" cy="313.592" r="6.25" fill="rgba(62,38,168,1.000000)"/>
<circle cx="676.021" cy="295.856" r="6.25" fill="rgba(62,38,168,1.000000)"/>
<circle cx="687.977" cy="283.455" r="6.25" fill="rgba(62,38,168,1.000000)"/>
<circle cx="693.595" cy="277.271" r="6.25" fill="rgba(62,38,168,1.000000)"/>
<circle cx="694.818" cy="276.292" r="6.25" fill="rgba(62,38,168,1.000000)"/>
<circle cx="695.767" cy="255.881" r="6.25" fill="rgba(62,38,168,1.000000)"/>
<circle cx="716.552" cy="255.806" r="6.25" fill="rgba(62,38,168,1.000000)"/>
<circle cx="714.919" cy="233.971" r="6.25" fill="rgba(62,38,168,1.000000)"/>
<circle cx="720.071" cy="238.917" r="6.25" fill="rgba(62,38,168,1.000000)"/>
<circle cx="738.198" cy="220.267" r="6.25" fill="rgba(62,38,168,1.000000)"/>
<circle cx="733.459" cy="211.428" r="6.25" fill="rgba(62,38,168,1.000000)"/>
<circle cx="742.554" cy="204.475" r="6.25" fill="rgba(62,38,168,1.000000)"/>
<circle cx="755.935" cy="200.682" r="6.25" fill="rgba(62,38,168,1.000000)"/>
<circle cx="762.855" cy="190.416" r="6.25" fill="rgba(62,38,168,1.000000)"/>
<circle cx="776.832" cy="173.861" r="6.25" fill="rgba(62,38,168,1.000000)"/>
<circle cx="775.904" cy="161.661" r="6.25" fill="rgba(62,38,168,1.000000)"/>
<circle cx="777.979" cy="154.015" r="6.25" fill="rgba(62,38,168,1.000000)"/>
<circle cx="795.871" cy="149.192" r="6.25" fill="rgba(62,38,168,1.000000)"/>
<circle cx="794.062" cy="149.856" r="6.25" fill="rgba(62,38,168,1.000000)"/>
<circle cx="801.074" cy="133.68" r="6.25" fill="rgba(62,38,168,1.000000)"/>
<circle cx="812.84" cy="134.322" r="6.25" fill="rgba(62,38,168,1.000000)"/>
<circle cx="818.677" cy="127.811" r="6.25" fill="rgba(62,38,168,1.000000)"/>
<circle cx="836.493" cy="113.322" r="6.25" fill="rgba(62,38,168,1.000000)"/>
<circle cx="830.294" cy="108.573" r="6.25" fill="rgba(62,38,168,1.000000)"/>
<circle cx="849.344" cy="109.661" r="6.25" fill="rgba(62,38,168,1.000000)"/>
<circle cx="853.886" cy="106.102" r="6.25" fill="rgba(62,38,168,1.000000)"/>
<circle cx="852.058" cy="102.114" r="6.25" fill="rgba(62,38,168,1.000000)"/>
<circle cx="859.15" cy="91.12" r="6.25" fill="rgba(62,38,168,1.000000)"/>
<circle cx="881.122" cy="81.2364" r="6.25" fill="rgba(62,38,168,1.000000)"/>
<circle cx="875.785" cy="85.8922" r="6.25" fill="rgba(62,38,168,1.000000)"/>
<circle cx="881.366" cy="78.0165" r="6.25" fill="rgba(62,38,168,1.000000)"/>
<circle cx="891.909" cy="81.9392" r="6.25" fill="rgba(62,38,168,1.000000)"/>
<circle cx="905.65" cy="77.1199" r="6.25" fill="rgba(62,38,168,1.000000)"/>
<circle cx="911.38" cy="68.8757" r="6.25" fill="rgba(62,38,168,1.000000)"/>
<circle cx="921.301" cy="70.4658" r="6.25" fill="rgba(62,38,168,1.000000)"/>
<circle cx="933.15" cy="63.1877" r="6.25" fill="rgba(62,38,168,1.000000)"/>
<circle cx="929.249" cy="63.1718" r="6.25" fill="rgba(62,38,168,1.000000)"/>
<circle cx="935.96" cy="71.6836" r="6.25" fill="rgba(62,38,168,1.000000)"/>
<circle cx="953.528" cy="76.3154" r="6.25" fill="rgba(62,38,168,1.000000)"/>
<circle cx="950.685" cy="66.7883" r="6.25" fill="rgba(62,38,168,1.000000)"/>
<circle cx="965.815" cy="64.1351" r="6.25" fill="rgba(62,38,168,1.000000)"/>
<circle cx="964.395" cy="65.9795" r="6.25" fill="rgba(62,38,168,1.000000)"/>
<circle cx="972.665" cy="81.793" r="6.25" fill="rgba(62,38,168,1.000000)"/>
<circle cx="977.855" cy="81.9515" r="6.25" fill="rgba(62,38,168,1.000000)"/>
<circle cx="996.579" cy="84.2967" r="6.25" fill="rgba(62,38,168,1.000000)"/>
<circle cx="994.597" cy="85.9338" r="6.25" fill="rgba(62,38,168,1.000000)"/>
<circle cx="1001.11" cy="89.0528" r="6.25" fill="rgba(62,38,168,1.000000)"/>
<circle cx="1010.22" cy="97.0759" r="6.25" fill="rgba(62,38,168,1.000000)"/>
<circle cx="1018.56" cy="96.8919" r="6.25" fill="rgba(62,38,168,1.000000)"/>
<circle cx="1021.94" cy="92.9103" r="6.25" fill="rgba(62,38,168,1.000000)"/>
<circle cx="1033.03" cy="111.145" r="6.25" fill="rgba(62,38,168,1.000000)"/>
<circle cx="1047.33" cy="105.903" r="6.25" fill="rgba(62,38,168,1.000000)"/>
<circle cx="1056.27" cy="123.948" r="6.25" fill="rgba(62,38,168,1.000000)"/>
<circle cx="1054.88" cy="130.225" r="6.25" fill="rgba(62,38,168,1.000000)"/>
<circle cx="1068.71" cy="130.888" r="6.25" fill="rgba(62,38,168,1.000000)"/>
<circle cx="1081.12" cy="129.024" r="6.25" fill="rgba(62,38,168,1.000000)"/>
<circle cx="1082.42" cy="148.771" r="6.25" fill="rgba(62,38,168,1.000000)"/>
<circle cx="1087.09" cy="144.29" r="6.25" fill="rgba(62,38,168,1.000000)"/>
<circle cx="1088.56" cy="167.163" r="6.25" fill="rgba(62,38,168,1.000000)"/>
<circle cx="1109.51" cy="161.322" r="6.25" fill="rgba(62,38,168,1.000000)"/>
<circle cx="1116.74" cy="175.047" r="6.25" fill="rgba(62,38,168,1.000000)"/>
<circle cx="1111.98" cy="179.393" r="6.25" fill="rgba(62,38,168,1.000000)"/>
<circle cx="1120.95" cy="193.823" r="6.25" fill="rgba(62,38,168,1.000000)"/>
<circle cx="1139.41" cy="206.611" r="6.25" fill="rgba(62,38,168,1.000000)"/>
<circle cx="1142.32" cy="205.935" r="6.25" fill="rgba(62,38,168,1.000000)"/>
<circle cx="1146.21" cy="223.535" r="6.25" fill="rgba(62,38,168,1.000000)"/>
<circle cx="1150.27" cy="226.482" r="6.25" fill="rgba(62,38,168,1.000000)"/>
<circle cx="1156.94" cy="232.251" r="6.25" fill="rgba(62,38,168,1.000000)"/>
<circle cx="1172.02" cy="242.483" r="6.25" fill="rgba(62,38,168,1.000000)"/>
<circle cx="1181.94" cy="258.816" r="6.25" fill="rgba(62,38,168,1.000000)"/>
<circle cx="1193.36" cy="272.931" r="6.25" fill="rgba(62,38,168,1.000000)"/>
<circle cx="1197.45" cy="273.486" r="6.25" fill="rgba(62,38,168,1.000000)"/>
<circle cx="1198.67" cy="295.497" r="6.25" fill="rgba(62,38,168,1.000000)"/>
<circle cx="1212.5" cy="290.994" r="6.25" fill="rgba(62,38,168,1.000000)"/>
<circle cx="175.091" cy="474.849" r="6.25" fill="rgba(249,251,21,1.000000)"/>
<circle cx="173.438" cy="493.747" r="6.25" fill="rgba(249,251,21,1.000000)"/>
<circle cx="189.214" cy="491.882" r="6.25" fill="rgba(249,251,21,1.000000)"/>
<circle cx="196.221" cy="505.134" r="6.25" fill="rgba(249,251,21,1.000000)"/>
<circle cx="199.014" cy="520.085" r="6.25" fill="rgba(249,251,21,1.000000)"/>
<circle cx="213.16" cy="536.321" r="6.25" fill="rgba(249,251,21,1.000000)"/>
<circle cx="210.398" cy="533.622" r="6.25" fill="rgba(249,251,21,1.000000)"/>
<circle cx="221.684" cy="550.116" r="6.25" fill="rgba(249,251,21,1.000000)"/>
<circle cx="233.973" cy="555.986" r="6.25" fill="rgba(249,251,21,1.000000)"/>
<circle cx="235.989" cy="558.259" r="6.25" fill="rgba(249,251,21,1.000000)"/>
<circle cx="244.167" cy="574.036" r="6.25" fill="rgba(249,251,21,1.000000)"/>
<circle cx="254.796" cy="584.109" r="6.25" fill="rgba(249,251,21,1.000000)"/>
<circle cx="255.936" cy="596.189" r="6.25" fill="rgba(249,251,21,1.000000)"/>
<circle cx="265.9" cy="599.944" r="6.25" fill="rgba(249,251,21,1.000000)"/>
<circle cx="271.114" cy="602.117" r="6.25" fill="rgba(249,251,21,1.000000)"/>
<circle cx="290.548" cy="617.382" r="6.25" fill="rgba(249,251,21,1.000000)"/>
<circle cx="293.092" cy="620.331" r="6.25" fill="rgba(249,251,21,1.000000)"/>
<circle cx="296.545" cy="627.884" r="6.25" fill="rgba(249,251,21,1.000000)"/>
<circle cx="312.842" cy="633.274" r="6.25" fill="rgba(249,251,21,1.000000)"/>
<circle cx="309.664" cy="651.785" r="6.25" fill="rgba(249,251,21,1.000000)"/>
<circle cx="328.868" cy="660.308" r="6.25" fill="rgba(249,251,21,1.000000)"/>
<circle cx="329.607" cy="664.495" r="6.25" fill="rgba(249,251,21,1.000000)"/>
<circle cx="338.715" cy="675.334" r="6.25" fill="rgba(249,251,21,1.000000)"/>
<circle cx="342.026" cy="677.792" r="6.25" fill="rgba(249,251,21,1.000000)"/>
<circle cx="348.322" cy="677.042" r="6.25" fill="rgba(249,251,21,1.000000)"/>
<circle cx="356.319" cy="680.265" r="6.25" fill="rgba(249,251,21,1.000000)"/>
<circle cx="365.137" cy="685.452" r="6.25" fill="rgba(249,251,21,1.000000)"/>
<circle cx="376.053" cy="686.132" r="6.25" fill="rgba(249,251,21,1.000000)"/>
<circle cx="374.57" cy="692.39" r="6.25" fill="rgba(249,251,21,1.000000)"/>
<circle cx="387.885" cy="693.517" r="6.25" fill="rgba(249,251,21,1.000000)"/>
<circle cx="394.589" cy="709.905" r="6.25" fill="rgba(249,251,21,1.000000)"/>
<circle cx="406.805" cy="710.647" r="6.25" fill="rgba(249,251,21,1.000000)"/>
<circle cx="418.196" cy="711.416" r="6.25" fill="rgba(249,251,21,1.000000)"/>
<circle cx="424.049" cy="701.501" r="6.25" fill="rgba(249,251,21,1.000000)"/>
<circle cx="435.109" cy="712.303" r="6.25" fill="rgba(249,251,21,1.000000)"/>
<circle cx="433.027" cy="714.213" r="6.25" fill="rgba(249,251,21,1.000000)"/>
<circle cx="437.137" cy="716.516" r="6.25" fill="rgba(249,251,21,1.000000)"/>
<circle cx="456.28" cy="709.676" r="6.25" fill="rgba(249,251,21,1.000000)"/>
<circle cx="461.944" cy="714.835" r="6.25" fill="rgba(249,251,21,1.000000)"/>
<circle cx="471.029" cy="705.128" r="6.25" fill="rgba(249,251,21,1.000000)"/>
<circle cx="466.833" cy="709.726" r="6.25" fill="rgba(249,251,21,1.000000)"/>
<circle cx="478.551" cy="701.719" r="6.25" fill="rgba(249,251,21,1.000000)"/>
<circle cx="483.581" cy="696.194" r="6.25" fill="rgba(249,251,21,1.000000)"/>
<circle cx="493.136" cy="697.101" r="6.25" fill="rgba(249,251,21,1.000000)"/>
<circle cx="505.146" cy="703.25" r="6.25" fill="rgba(249,251,21,1.000000)"/>
<circle cx="512.544" cy="696.231" r="6.25" fill="rgba(249,251,21,1.000000)"/>
<circle cx="518.535" cy="690.398" r="6.25" fill="rgba(249,251,21,1.000000)"/>
<circle cx="521.043" cy="677.008" r="6.25" fill="rgba(249,251,21,1.000000)"/>
<circle cx="526.58" cy="682.315" r="6.25" fill="rgba(249,251,21,1.000000)"/>
<circle cx="538.05" cy="664.075" r="6.25" fill="rgba(249,251,21,1.000000)"/>
<circle cx="550.141" cy="666.23" r="6.25" fill="rgba(249,251,21,1.000000)"/>
<circle cx="548.227" cy="654.948" r="6.25" fill="rgba(249,251,21,1.000000)"/>
<circle cx="553.032" cy="654.833" r="6.25" fill="rgba(249,251,21,1.000000)"/>
<circle cx="561.81" cy="639.135" r="6.25" fill="rgba(249,251,21,1.000000)"/>
<circle cx="569.647" cy="638.868" r="6.25" fill="rgba(249,251,21,1.000000)"/>
<circle cx="582.64" cy="636" r="6.25" fill="rgba(249,251,21,1.000000)"/>
<circle cx="588.29" cy="618.991" r="6.25" fill="rgba(249,251,21,1.000000)"/>
<circle cx="605.049" cy="613.581" r="6.25" fill="rgba(249,251,21,1.000000)"/>
<circle cx="600.719" cy="605.252" r="6.25" fill="rgba(249,251,21,1.000000)"/>
<circle cx="611.015" cy="604.648" r="6.25" fill="rgba(249,251,21,1.000000)"/>
<circle cx="612.509" cy="596.371" r="6.25" fill="rgba(249,251,21,1.000000)"/>
<circle cx="620.586" cy="585.458" r="6.25" fill="rgba(249,251,21,1.000000)"/>
<circle cx="640.899" cy="572.659" r="6.25" fill="rgba(249,251,21,1.000000)"/>
<circle cx="646.096" cy="570.908" r="6.25" fill="rgba(249,251,21,1.000000)"/>
<circle cx="643.46" cy="551.2" r="6.25" fill="rgba(249,251,21,1.000000)"/>
<circle cx="662.452" cy="547.143" r="6.25" fill="rgba(249,251,21,1.000000)"/>
<circle cx="663.357" cy="532.363" r="6.25" fill="rgba(249,251,21,1.000000)"/>
<circle cx="666.643" cy="524.043" r="6.25" fill="rgba(249,251,21,1.000000)"/>
<circle cx="687.977" cy="509.057" r="6.25" fill="rgba(249,251,21,1.000000)"/>
<circle cx="681.088" cy="509.704" r="6.25" fill="rgba(249,251,21,1.000000)"/>
<circle cx="688.893" cy="504.591" r="6.25" fill="rgba(249,251,21,1.000000)"/>
<circle cx="708.13" cy="482.153" r="6.25" fill="rgba(249,251,21,1.000000)"/>
<circle cx="713.479" cy="484.772" r="6.25" fill="rgba(249,251,21,1.000000)"/>
<circle cx="710.025" cy="470.022" r="6.25" fill="rgba(249,251,21,1.000000)"/>
<circle cx="726.604" cy="460.189" r="6.25" fill="rgba(249,251,21,1.000000)"/>
<circle cx="730.927" cy="454.454" r="6.25" fill="rgba(249,251,21,1.000000)"/>
<circle cx="745.886" cy="432.627" r="6.25" fill="rgba(249,251,21,1.000000)"/>
<circle cx="748.869" cy="424.889" r="6.25" fill="rgba(249,251,21,1.000000)"/>
<circle cx="757.018" cy="420.118" r="6.25" fill="rgba(249,251,21,1.000000)"/>
<circle cx="761.374" cy="411.25" r="6.25" fill="rgba(249,251,21,1.000000)"/>
<circle cx="761.049" cy="404.582" r="6.25" fill="rgba(249,251,21,1.000000)"/>
<circle cx="774.764" cy="400.894" r="6.25" fill="rgba(249,251,21,1.000000)"/>
<circle cx="780.749" cy="393.298" r="6.25" fill="rgba(249,251,21,1.000000)"/>
<circle cx="792.379" cy="377.352" r="6.25" fill="rgba(249,251,21,1.000000)"/>
<circle cx="798.676" cy="380.299" r="6.25" fill="rgba(249,251,21,1.000000)"/>
<circle cx="812.883" cy="365.466" r="6.25" fill="rgba(249,251,21,1.000000)"/>
<circle cx="808.048" cy="352.09" r="6.25" fill="rgba(249,251,21,1.000000)"/>
<circle cx="814.206" cy="346.827" r="6.25" fill="rgba(249,251,21,1.000000)"/>
<circle cx="828.416" cy="353.322" r="6.25" fill="rgba(249,251,21,1.000000)"/>
<circle cx="829.992" cy="343.992" r="6.25" fill="rgba(249,251,21,1.000000)"/>
<circle cx="847.3" cy="336.106" r="6.25" fill="rgba(249,251,21,1.000000)"/>
<circle cx="846.376" cy="335.716" r="6.25" fill="rgba(249,251,21,1.000000)"/>
<circle cx="854.269" cy="321.942" r="6.25" fill="rgba(249,251,21,1.000000)"/>
<circle cx="867.821" cy="325.788" r="6.25" fill="rgba(249,251,21,1.000000)"/>
<circle cx="878.182" cy="322.37" r="6.25" fill="rgba(249,251,21,1.000000)"/>
<circle cx="883.852" cy="317.889" r="6.25" fill="rgba(249,251,21,1.000000)"/>
<circle cx="888.812" cy="307.101" r="6.25" fill="rgba(249,251,21,1.000000)"/>
<circle cx="894.715" cy="304.842" r="6.25" fill="rgba(249,251,21,1.000000)"/>
<circle cx="911.26" cy="304.972" r="6.25" fill="rgba(249,251,21,1.000000)"/>
<circle cx="912.638" cy="297.162" r="6.25" fill="rgba(249,251,21,1.000000)"/>
<circle cx="924.974" cy="305.556" r="6.25" fill="rgba(249,251,21,1.000000)"/>
<circle cx="919.685" cy="303.159" r="6.25" fill="rgba(249,251,21,1.000000)"/>
<circle cx="937.81" cy="289.048" r="6.25" fill="rgba(249,251,21,1.000000)"/>
<circle cx="944.291" cy="298.28" r="6.25" fill="rgba(249,251,21,1.000000)"/>
<circle cx="942.083" cy="300.628" r="6.25" fill="rgba(249,251,21,1.000000)"/>
<circle cx="962.271" cy="301.402" r="6.25" fill="rgba(249,251,21,1.000000)"/>
<circle cx="970.865" cy="290.644" r="6.25" fill="rgba(249,251,21,1.000000)"/>
<circle cx="965.442" cy="299.992" r="6.25" fill="rgba(249,251,21,1.000000)"/>
<circle cx="972.523" cy="300.507" r="6.25" fill="rgba(249,251,21,1.000000)"/>
<circle cx="977.53" cy="308.76" r="6.25" fill="rgba(249,251,21,1.000000)"/>
<circle cx="992.281" cy="311.118" r="6.25" fill="rgba(249,251,21,1.000000)"/>
<circle cx="1004.86" cy="308.164" r="6.25" fill="rgba(249,251,21,1.000000)"/>
<circle cx="1009.94" cy="308.762" r="6.25" fill="rgba(249,251,21,1.000000)"/>
<circle cx="1008.68" cy="317.237" r="6.25" fill="rgba(249,251,21,1.000000)"/>
<circle cx="1029.57" cy="330.48" r="6.25" fill="rgba(249,251,21,1.000000)"/>
<circle cx="1027.01" cy="327.446" r="6.25" fill="rgba(249,251,21,1.000000)"/>
<circle cx="1036.73" cy="334.184" r="6.25" fill="rgba(249,251,21,1.000000)"/>
<circle cx="1042.52" cy="333.949" r="6.25" fill="rgba(249,251,21,1.000000)"/>
<circle cx="1052.19" cy="338.985" r="6.25" fill="rgba(249,251,21,1.000000)"/>
<circle cx="1060.89" cy="351.213" r="6.25" fill="rgba(249,251,21,1.000000)"/>
<circle cx="1068.87" cy="358.781" r="6.25" fill="rgba(249,251,21,1.000000)"/>
<circle cx="1080.23" cy="361.895" r="6.25" fill="rgba(249,251,21,1.000000)"/>
<circle cx="1089.18" cy="364.477" r="6.25" fill="rgba(249,251,21,1.000000)"/>
<circle cx="1094.23" cy="382.139" r="6.25" fill="rgba(249,251,21,1.000000)"/>
<circle cx="1102.82" cy="385.408" r="6.25" fill="rgba(249,251,21,1.000000)"/>
<circle cx="1101.49" cy="390.416" r="6.25" fill="rgba(249,251,21,1.000000)"/>
<circle cx="1108.5" cy="398.537" r="6.25" fill="rgba(249,251,21,1.000000)"/>
<circle cx="1125.25" cy="416.184" r="6.25" fill="rgba(249,251,21,1.000000)"/>
<circle cx="1133.42" cy="420.956" r="6.25" fill="rgba(249,251,21,1.000000)"/>
<circle cx="1131.82" cy="432.443" r="6.25" fill="rgba(249,251,21,1.000000)"/>
<circle cx="1136.97" cy="434.811" r="6.25" fill="rgba(249,251,21,1.000000)"/>
<circle cx="1144.64" cy="445.547" r="6.25" fill="rgba(249,251,21,1.000000)"/>
<circle cx="1159.09" cy="451.091" r="6.25" fill="rgba(249,251,21,1.000000)"/>
<circle cx="1166.59" cy="461.35" r="6.25" fill="rgba(249,251,21,1.000000)"/>
<circle cx="1175.42" cy="481.436" r="6.25" fill="rgba(249,251,21,1.000000)"/>
<circle cx="1177.92" cy="485.145" r="6.25" fill="rgba(249,251,21,1.000000)"/>
<circle cx="1188.75" cy="502.813" r="6.25" fill="rgba(249,251,21,1.000000)"/>
<circle cx="1199.3" cy="500.4" r="6.25" fill="rgba(249,251,21,1.000000)"/>
<circle cx="1195.66" cy="518.606" r="6.25" fill="rgba(249,251,21,1.000000)"/>
<circle cx="1200.33" cy="519.833" r="6.25" fill="rgba(249,251,21,1.000000)"/>
<line x1="174.219" y1="717.969" x2="1213.28" y2="717.969" stroke="rgba(33,33,33,1.000000)" stroke-width="1.04167"/>
<line x1="174.219" y1="717.969" x2="174.219" y2="60.1562" stroke="rgba(33,33,33,1.000000)" stroke-width="1.04167"/>
<line x1="174.219" y1="717.969" x2="174.219" y2="707.031" stroke="rgba(33,33,33,1.000000)" stroke-width="1.04167"/>
<line x1="278.906" y1="717.969" x2="278.906" y2="707.031" stroke="rgba(33,33,33,1.000000)" stroke-width="1.04167"/>
<line x1="382.031" y1="717.969" x2="382.031" y2="707.031" stroke="rgba(33,33,33,1.000000)" stroke-width="1.04167"/>
<line x1="485.156" y1="717.969" x2="485.156" y2="707.031" stroke="rgba(33,33,33,1.000000)" stroke-width="1.04167"/>
<line x1="588.281" y1="717.969" x2="588.281" y2="707.031" stroke="rgba(33,33,33,1.000000)" stroke-width="1.04167"/>
<line x1="691.406" y1="717.969" x2="691.406" y2="707.031" stroke="rgba(33,33,33,1.000000)" stroke-width="1.04167"/>
<line x1="796.094" y1="717.969" x2="796.094" y2="707.031" stroke="rgba(33,33,33,1.000000)" stroke-width="1.04167"/>
<line x1="899.219" y1="717.969" x2="899.219" y2="707.031" stroke="rgba(33,33,33,1.000000)" stroke-width="1.04167"/>
<line x1="1002.34" y1="717.969" x2="1002.34" y2="707.031" stroke="rgba(33,33,33,1.000000)" stroke-width="1.04167"/>
<line x1="1105.47" y1="717.969" x2="1105.47" y2="707.031" stroke="rgba(33,33,33,1.000000)" stroke-width="1.04167"/>
<line x1="1208.59" y1="717.969" x2="1208.59" y2="707.031" stroke="rgba(33,33,33,1.000000)" stroke-width="1.04167"/>
<text x="156.269" y="742.171" fill="rgba(33,33,33,1.000000)" font-size="20.8333" font-family="sans-serif" text-anchor="start">-2.5</text>
<text x="268.082" y="742.171" fill="rgba(33,33,33,1.000000)" font-size="20.8333" font-family="sans-serif" text-anchor="start">-2</text>
<text x="362.519" y="742.171" fill="rgba(33,33,33,1.000000)" font-size="20.8333" font-family="sans-serif" text-anchor="start">-1.5</text>
<text x="474.332" y="742.171" fill="rgba(33,33,33,1.000000)" font-size="20.8333" font-family="sans-serif" text-anchor="start">-1</text>
<text x="570.332" y="742.171" fill="rgba(33,33,33,1.000000)" font-size="20.8333" font-family="sans-serif" text-anchor="start">-0.5</text>
<text x="685.613" y="742.171" fill="rgba(33,33,33,1.000000)" font-size="20.8333" font-family="sans-serif" text-anchor="start">0</text>
<text x="780.051" y="742.171" fill="rgba(33,33,33,1.000000)" font-size="20.8333" font-family="sans-serif" text-anchor="start">0.5</text>
<text x="891.863" y="742.171" fill="rgba(33,33,33,1.000000)" font-size="20.8333" font-family="sans-serif" text-anchor="start">1</text>
<text x="986.301" y="742.171" fill="rgba(33,33,33,1.000000)" font-size="20.8333" font-family="sans-serif" text-anchor="start">1.5</text>
<text x="1099.68" y="742.171" fill="rgba(33,33,33,1.000000)" font-size="20.8333" font-family="sans-serif" text-anchor="start">2</text>
<text x="1194.11" y="742.171" fill="rgba(33,33,33,1.000000)" font-size="20.8333" font-family="sans-serif" text-anchor="start">2.5</text>
<line x1="174.219" y1="688.281" x2="185.156" y2="688.281" stroke="rgba(33,33,33,1.000000)" stroke-width="1.04167"/>
<line x1="174.219" y1="585.156" x2="185.156" y2="585.156" stroke="rgba(33,33,33,1.000000)" stroke-width="1.04167"/>
<line x1="174.219" y1="482.031" x2="185.156" y2="482.031" stroke="rgba(33,33,33,1.000000)" stroke-width="1.04167"/>
<line x1="174.219" y1="377.344" x2="185.156" y2="377.344" stroke="rgba(33,33,33,1.000000)" stroke-width="1.04167"/>
<line x1="174.219" y1="274.219" x2="185.156" y2="274.219" stroke="rgba(33,33,33,1.000000)" stroke-width="1.04167"/>
<line x1="174.219" y1="171.094" x2="185.156" y2="171.094" stroke="rgba(33,33,33,1.000000)" stroke-width="1.04167"/>
<line x1="174.219" y1="67.9688" x2="185.156" y2="67.9688" stroke="rgba(33,33,33,1.000000)" stroke-width="1.04167"/>
<text x="140.109" y="693.241" fill="rgba(33,33,33,1.000000)" font-size="20.8333" font-family="sans-serif" text-anchor="start">-2</text>
<text x="122.734" y="590.116" fill="rgba(33,33,33,1.000000)" font-size="20.8333" font-family="sans-serif" text-anchor="start">-1.5</text>
<text x="140.109" y="486.991" fill="rgba(33,33,33,1.000000)" font-size="20.8333" font-family="sans-serif" text-anchor="start">-1</text>
<text x="122.734" y="383.866" fill="rgba(33,33,33,1.000000)" font-size="20.8333" font-family="sans-serif" text-anchor="start">-0.5</text>
<text x="147.046" y="280.741" fill="rgba(33,33,33,1.000000)" font-size="20.8333" font-family="sans-serif" text-anchor="start">0</text>
<text x="129.672" y="176.054" fill="rgba(33,33,33,1.000000)" font-size="20.8333" font-family="sans-serif" text-anchor="start">0.5</text>
<text x="147.046" y="72.9289" fill="rgba(33,33,33,1.000000)" font-size="20.8333" font-family="sans-serif" text-anchor="start">1</text>
<text x="680.086" y="776.706" fill="rgba(33,33,33,1.000000)" font-size="22.9167" font-family="sans-serif" text-anchor="start">x1</text>
<text x="0" y="0" transform="translate(95.1436,402.727) rotate(-90)" fill="rgba(33,33,33,1.000000)" font-size="22.9167" font-family="sans-serif" text-anchor="start">x2</text>
<text x="578.203" y="46.7061" fill="rgba(32,32,32,1.000000)" font-size="22.9167" font-family="sans-serif" font-weight="bold" text-anchor="start">Bandes sinusoidales</text>
</svg>
