<svg width="859.52" height="517.12" viewBox="0 0 1343 808" xmlns="http://www.w3.org/2000/svg">
<rect x="0" y="0" width="1343" height="808" fill="#ffffff"/>
<rect x="0" y="0" width="1342.19" height="807.812" fill="rgba(255,255,255,1.000000)"/>
<polygon points="174.219,335.156 622.656,335.156 622.656,60.1562 174.219,60.1562 " fill="rgba(255,255,255,1.000000)"/>
<g fill="rgba(16,112,189,1.000000)" stroke="rgba(33,33,33,1.000000)" stroke-width="1.04167">
<rect x="180.39" y="332.009" width="8.69065" height="3.92857"/>
<rect x="189.081" y="328.08" width="8.69065" height="7.85714"/>
<rect x="197.771" y="332.009" width="8.69065" height="3.92857"/>
<rect x="206.462" y="335.938" width="8.69065" height="0"/>
<rect x="215.153" y="335.938" width="8.69065" height="0"/>
<rect x="223.843" y="328.08" width="8.69065" height="7.85714"/>
<rect x="232.534" y="320.223" width="8.69065" height="15.7143"/>
<rect x="241.225" y="308.438" width="8.69065" height="27.5"/>
<rect x="249.915" y="312.366" width="8.69065" height="23.5714"/>
<rect x="258.606" y="304.509" width="8.69065" height="31.4286"/>
<rect x="267.297" y="292.723" width="8.69065" height="43.2143"/>
<rect x="275.987" y="284.866" width="8.69065" height="51.0714"/>
<rect x="284.678" y="269.152" width="8.69065" height="66.7857"/>
<rect x="293.368" y="245.58" width="8.69065" height="90.3571"/>
<rect x="302.059" y="241.652" width="8.69065" height="94.2857"/>
<rect x="310.75" y="174.866" width="8.69065" height="161.071"/>
<rect x="319.44" y="206.295" width="8.69065" height="129.643"/>
<rect x="328.131" y="202.366" width="8.69065" height="133.571"/>
<rect x="336.822" y="167.009" width="8.69065" height="168.929"/>
<rect x="345.512" y="182.723" width="8.69065" height="153.214"/>
<rect x="354.203" y="139.509" width="8.69065" height="196.429"/>
<rect x="362.894" y="104.152" width="8.69065" height="231.786"/>
<rect x="371.584" y="119.866" width="8.69065" height="216.071"/>
<rect x="380.275" y="143.438" width="8.69065" height="192.5"/>
<rect x="388.966" y="112.009" width="8.69065" height="223.929"/>
<rect x="397.656" y="143.438" width="8.69065" height="192.5"/>
<rect x="406.347" y="76.6518" width="8.69065" height="259.286"/>
<rect x="415.038" y="163.08" width="8.69065" height="172.857"/>
<rect x="423.728" y="163.08" width="8.69065" height="172.857"/>
<rect x="432.419" y="178.795" width="8.69065" height="157.143"/>
<rect x="441.11" y="170.938" width="8.69065" height="165"/>
<rect x="449.8" y="229.866" width="8.69065" height="106.071"/>
<rect x="458.491" y="245.58" width="8.69065" height="90.3571"/>
<rect x="467.181" y="296.652" width="8.69065" height="39.2857"/>
<rect x="475.872" y="253.438" width="8.69065" height="82.5"/>
<rect x="484.563" y="300.58" width="8.69065" height="35.3571"/>
<rect x="493.253" y="288.795" width="8.69065" height="47.1429"/>
<rect x="501.944" y="304.509" width="8.69065" height="31.4286"/>
<rect x="510.635" y="308.438" width="8.69065" height="27.5"/>
<rect x="519.325" y="328.08" width="8.69065" height="7.85714"/>
<rect x="528.016" y="324.152" width="8.69065" height="11.7857"/>
<rect x="536.707" y="328.08" width="8.69065" height="7.85714"/>
<rect x="545.397" y="316.295" width="8.69065" height="19.6429"/>
<rect x="554.088" y="335.938" width="8.69065" height="0"/>
<rect x="562.779" y="324.152" width="8.69065" height="11.7857"/>
<rect x="571.469" y="332.009" width="8.69065" height="3.92857"/>
<rect x="580.16" y="332.009" width="8.69065" height="3.92857"/>
<rect x="588.851" y="335.938" width="8.69065" height="0"/>
<rect x="597.541" y="335.938" width="8.69065" height="0"/>
<rect x="606.232" y="328.08" width="8.69065" height="7.85714"/>
</g>
<line x1="173.438" y1="335.938" x2="621.875" y2="335.938" stroke="rgba(33,33,33,1.000000)" stroke-width="1.04167"/>
<line x1="174.219" y1="335.156" x2="622.656" y2="335.156" stroke="rgba(33,33,33,1.000000)" stroke-width="1.04167"/>
<line x1="174.219" y1="60.1562" x2="622.656" y2="60.1562" stroke="rgba(33,33,33,1.000000)" stroke-width="1.04167"/>
<line x1="174.219" y1="335.156" x2="174.219" y2="60.1562" stroke="rgba(33,33,33,1.000000)" stroke-width="1.04167"/>
<line x1="622.656" y1="335.156" x2="622.656" y2="60.1562" stroke="rgba(33,33,33,1.000000)" stroke-width="1.04167"/>
<line x1="196.094" y1="335.156" x2="196.094" y2="330.469" stroke="rgba(33,33,33,1.000000)" stroke-width="1.04167"/>
<line x1="196.094" y1="60.1562" x2="196.094" y2="64.8438" stroke="rgba(33,33,33,1.000000)" stroke-width="1.04167"/>
<line x1="260.156" y1="335.156" x2="260.156" y2="330.469" stroke="rgba(33,33,33,1.000000)" stroke-width="1.04167"/>
<line x1="260.156" y1="60.1562" x2="260.156" y2="64.8438" stroke="rgba(33,33,33,1.000000)" stroke-width="1.04167"/>
<line x1="324.219" y1="335.156" x2="324.219" y2="330.469" stroke="rgba(33,33,33,1.000000)" stroke-width="1.04167"/>
<line x1="324.219" y1="60.1562" x2="324.219" y2="64.8438" stroke="rgba(33,33,33,1.000000)" stroke-width="1.04167"/>
<line x1="386.719" y1="335.156" x2="386.719" y2="330.469" stroke="rgba(33,33,33,1.000000)" stroke-width="1.04167"/>
<line x1="386.719" y1="60.1562" x2="386.719" y2="64.8438" stroke="rgba(33,33,33,1.000000)" stroke-width="1.04167"/>
<line x1="450.781" y1="335.156" x2="450.781" y2="330.469" stroke="rgba(33,33,33,1.000000)" stroke-width="1.04167"/>
<line x1="450.781" y1="60.1562" x2="450.781" y2="64.8438" stroke="rgba(33,33,33,1.000000)" stroke-width="1.04167"/>
<line x1="514.844" y1="335.156" x2="514.844" y2="330.469" stroke="rgba(33,33,33,1.000000)" stroke-width="1.04167"/>
<line x1="514.844" y1="60.1562" x2="514.844" y2="64.8438" stroke="rgba(33,33,33,1.000000)" stroke-width="1.04167"/>
<line x1="578.906" y1="335.156" x2="578.906" y2="330.469" stroke="rgba(33,33,33,1.000000)" stroke-width="1.04167"/>
<line x1="578.906" y1="60.1562" x2="578.906" y2="64.8438" stroke="rgba(33,33,33,1.000000)" stroke-width="1.04167"/>
<text x="185.269" y="353.616" fill="rgba(33,33,33,1.000000)" font-size="20.8333" font-family="sans-serif" text-anchor="start">-3</text>
<text x="249.332" y="353.616" fill="rgba(33,33,33,1.000000)" font-size="20.8333" font-family="sans-serif" text-anchor="start">-2</text>
<text x="313.394" y="353.616" fill="rgba(33,33,33,1.000000)" font-size="20.8333" font-family="sans-serif" text-anchor="start">-1</text>
<text x="380.925" y="353.616" fill="rgba(33,33,33,1.000000)" font-size="20.8333" font-family="sans-serif" text-anchor="start">0</text>
<text x="444.988" y="353.616" fill="rgba(33,33,33,1.000000)" font-size="20.8333" font-family="sans-serif" text-anchor="start">1</text>
<text x="509.05" y="353.616" fill="rgba(33,33,33,1.000000)" font-size="20.8333" font-family="sans-serif" text-anchor="start">2</text>
<text x="571.55" y="353.616" fill="rgba(33,33,33,1.000000)" font-size="20.8333" font-family="sans-serif" text-anchor="start">3</text>
<line x1="174.219" y1="335.156" x2="178.906" y2="335.156" stroke="rgba(33,33,33,1.000000)" stroke-width="1.04167"/>
<line x1="622.656" y1="335.156" x2="617.969" y2="335.156" stroke="rgba(33,33,33,1.000000)" stroke-width="1.04167"/>
<line x1="174.219" y1="296.094" x2="178.906" y2="296.094" stroke="rgba(33,33,33,1.000000)" stroke-width="1.04167"/>
<line x1="622.656" y1="296.094" x2="617.969" y2="296.094" stroke="rgba(33,33,33,1.000000)" stroke-width="1.04167"/>
<line x1="174.219" y1="257.031" x2="178.906" y2="257.031" stroke="rgba(33,33,33,1.000000)" stroke-width="1.04167"/>
<line x1="622.656" y1="257.031" x2="617.969" y2="257.031" stroke="rgba(33,33,33,1.000000)" stroke-width="1.04167"/>
<line x1="174.219" y1="217.969" x2="178.906" y2="217.969" stroke="rgba(33,33,33,1.000000)" stroke-width="1.04167"/>
<line x1="622.656" y1="217.969" x2="617.969" y2="217.969" stroke="rgba(33,33,33,1.000000)" stroke-width="1.04167"/>
<line x1="174.219" y1="177.344" x2="178.906" y2="177.344" stroke="rgba(33,33,33,1.000000)" stroke-width="1.04167"/>
<line x1="622.656" y1="177.344" x2="617.969" y2="177.344" stroke="rgba(33,33,33,1.000000)" stroke-width="1.04167"/>
<line x1="174.219" y1="138.281" x2="178.906" y2="138.281" stroke="rgba(33,33,33,1.000000)" stroke-width="1.04167"/>
<line x1="622.656" y1="138.281" x2="617.969" y2="138.281" stroke="rgba(33,33,33,1.000000)" stroke-width="1.04167"/>
<line x1="174.219" y1="99.2188" x2="178.906" y2="99.2188" stroke="rgba(33,33,33,1.000000)" stroke-width="1.04167"/>
<line x1="622.656" y1="99.2188" x2="617.969" y2="99.2188" stroke="rgba(33,33,33,1.000000)" stroke-width="1.04167"/>
<line x1="174.219" y1="60.1562" x2="178.906" y2="60.1562" stroke="rgba(33,33,33,1.000000)" stroke-width="1.04167"/>
<line x1="622.656" y1="60.1562" x2="617.969" y2="60.1562" stroke="rgba(33,33,33,1.000000)" stroke-width="1.04167"/>
<text x="155.906" y="340.116" fill="rgba(33,33,33,1.000000)" font-size="20.8333" font-family="sans-serif" text-anchor="start">0</text>
<text x="144.319" y="301.054" fill="rgba(33,33,33,1.000000)" font-size="20.8333" font-family="sans-serif" text-anchor="start">10</text>
<text x="144.319" y="261.991" fill="rgba(33,33,33,1.000000)" font-size="20.8333" font-family="sans-serif" text-anchor="start">20</text>
<text x="144.319" y="222.929" fill="rgba(33,33,33,1.000000)" font-size="20.8333" font-family="sans-serif" text-anchor="start">30</text>
<text x="144.319" y="183.866" fill="rgba(33,33,33,1.000000)" font-size="20.8333" font-family="sans-serif" text-anchor="start">40</text>
<text x="144.319" y="144.804" fill="rgba(33,33,33,1.000000)" font-size="20.8333" font-family="sans-serif" text-anchor="start">50</text>
<text x="144.319" y="105.741" fill="rgba(33,33,33,1.000000)" font-size="20.8333" font-family="sans-serif" text-anchor="start">60</text>
<text x="144.319" y="65.1164" fill="rgba(33,33,33,1.000000)" font-size="20.8333" font-family="sans-serif" text-anchor="start">70</text>
<polygon points="764.844,335.156 1213.28,335.156 1213.28,60.1562 764.844,60.1562 " fill="rgba(255,255,255,1.000000)"/>
<g fill="rgba(16,112,189,1.000000)" stroke="rgba(33,33,33,1.000000)" stroke-width="1.04167">
<rect x="771.015" y="332.009" width="8.69065" height="3.92857"/>
<rect x="779.706" y="335.938" width="8.69065" height="0"/>
<rect x="788.396" y="335.938" width="8.69065" height="0"/>
<rect x="797.087" y="332.009" width="8.69065" height="3.92857"/>
<rect x="805.778" y="328.08" width="8.69065" height="7.85714"/>
<rect x="814.468" y="332.009" width="8.69065" height="3.92857"/>
<rect x="823.159" y="300.58" width="8.69065" height="35.3571"/>
<rect x="831.85" y="304.509" width="8.69065" height="31.4286"/>
<rect x="840.54" y="304.509" width="8.69065" height="31.4286"/>
<rect x="849.231" y="320.223" width="8.69065" height="15.7143"/>
<rect x="857.922" y="273.08" width="8.69065" height="62.8571"/>
<rect x="866.612" y="265.223" width="8.69065" height="70.7143"/>
<rect x="875.303" y="265.223" width="8.69065" height="70.7143"/>
<rect x="883.993" y="265.223" width="8.69065" height="70.7143"/>
<rect x="892.684" y="245.58" width="8.69065" height="90.3571"/>
<rect x="901.375" y="222.009" width="8.69065" height="113.929"/>
<rect x="910.065" y="167.009" width="8.69065" height="168.929"/>
<rect x="918.756" y="214.152" width="8.69065" height="121.786"/>
<rect x="927.447" y="159.152" width="8.69065" height="176.786"/>
<rect x="936.137" y="151.295" width="8.69065" height="184.643"/>
<rect x="944.828" y="139.509" width="8.69065" height="196.429"/>
<rect x="953.519" y="92.3661" width="8.69065" height="243.571"/>
<rect x="962.209" y="159.152" width="8.69065" height="176.786"/>
<rect x="970.9" y="139.509" width="8.69065" height="196.429"/>
<rect x="979.591" y="96.2946" width="8.69065" height="239.643"/>
<rect x="988.281" y="155.223" width="8.69065" height="180.714"/>
<rect x="996.972" y="127.723" width="8.69065" height="208.214"/>
<rect x="1005.66" y="135.58" width="8.69065" height="200.357"/>
<rect x="1014.35" y="170.938" width="8.69065" height="165"/>
<rect x="1023.04" y="174.866" width="8.69065" height="161.071"/>
<rect x="1031.73" y="210.223" width="8.69065" height="125.714"/>
<rect x="1040.43" y="218.08" width="8.69065" height="117.857"/>
<rect x="1049.12" y="253.438" width="8.69065" height="82.5"/>
<rect x="1057.81" y="257.366" width="8.69065" height="78.5714"/>
<rect x="1066.5" y="292.723" width="8.69065" height="43.2143"/>
<rect x="1075.19" y="277.009" width="8.69065" height="58.9286"/>
<rect x="1083.88" y="304.509" width="8.69065" height="31.4286"/>
<rect x="1092.57" y="300.58" width="8.69065" height="35.3571"/>
<rect x="1101.26" y="312.366" width="8.69065" height="23.5714"/>
<rect x="1109.95" y="324.152" width="8.69065" height="11.7857"/>
<rect x="1118.64" y="308.438" width="8.69065" height="27.5"/>
<rect x="1127.33" y="324.152" width="8.69065" height="11.7857"/>
<rect x="1136.02" y="332.009" width="8.69065" height="3.92857"/>
<rect x="1144.71" y="312.366" width="8.69065" height="23.5714"/>
<rect x="1153.4" y="335.938" width="8.69065" height="0"/>
<rect x="1162.09" y="328.08" width="8.69065" height="7.85714"/>
<rect x="1170.78" y="332.009" width="8.69065" height="3.92857"/>
<rect x="1179.48" y="335.938" width="8.69065" height="0"/>
<rect x="1188.17" y="332.009" width="8.69065" height="3.92857"/>
<rect x="1196.86" y="332.009" width="8.69065" height="3.92857"/>
</g>
<line x1="764.062" y1="335.938" x2="1212.5" y2="335.938" stroke="rgba(33,33,33,1.000000)" stroke-width="1.04167"/>
<line x1="764.844" y1="335.156" x2="1213.28" y2="335.156" stroke="rgba(33,33,33,1.000000)" stroke-width="1.04167"/>
<line x1="764.844" y1="60.1562" x2="1213.28" y2="60.1562" stroke="rgba(33,33,33,1.000000)" stroke-width="1.04167"/>
<line x1="764.844" y1="335.156" x2="764.844" y2="60.1562" stroke="rgba(33,33,33,1.000000)" stroke-width="1.04167"/>
<line x1="1213.28" y1="335.156" x2="1213.28" y2="60.1562" stroke="rgba(33,33,33,1.000000)" stroke-width="1.04167"/>
<line x1="775.781" y1="335.156" x2="775.781" y2="330.469" stroke="rgba(33,33,33,1.000000)" stroke-width="1.04167"/>
<line x1="775.781" y1="60.1562" x2="775.781" y2="64.8438" stroke="rgba(33,33,33,1.000000)" stroke-width="1.04167"/>
<line x1="841.406" y1="335.156" x2="841.406" y2="330.469" stroke="rgba(33,33,33,1.000000)" stroke-width="1.04167"/>
<line x1="841.406" y1="60.1562" x2="841.406" y2="64.8438" stroke="rgba(33,33,33,1.000000)" stroke-width="1.04167"/>
<line x1="907.031" y1="335.156" x2="907.031" y2="330.469" stroke="rgba(33,33,33,1.000000)" stroke-width="1.04167"/>
<line x1="907.031" y1="60.1562" x2="907.031" y2="64.8438" stroke="rgba(33,33,33,1.000000)" stroke-width="1.04167"/>
<line x1="972.656" y1="335.156" x2="972.656" y2="330.469" stroke="rgba(33,33,33,1.000000)" stroke-width="1.04167"/>
<line x1="972.656" y1="60.1562" x2="972.656" y2="64.8438" stroke="rgba(33,33,33,1.000000)" stroke-width="1.04167"/>
<line x1="1038.28" y1="335.156" x2="1038.28" y2="330.469" stroke="rgba(33,33,33,1.000000)" stroke-width="1.04167"/>
<line x1="1038.28" y1="60.1562" x2="1038.28" y2="64.8438" stroke="rgba(33,33,33,1.000000)" stroke-width="1.04167"/>
<line x1="1103.91" y1="335.156" x2="1103.91" y2="330.469" stroke="rgba(33,33,33,1.000000)" stroke-width="1.04167"/>
<line x1="1103.91" y1="60.1562" x2="1103.91" y2="64.8438" stroke="rgba(33,33,33,1.000000)" stroke-width="1.04167"/>
<line x1="1169.53" y1="335.156" x2="1169.53" y2="330.469" stroke="rgba(33,33,33,1.000000)" stroke-width="1.04167"/>
<line x1="1169.53" y1="60.1562" x2="1169.53" y2="64.8438" stroke="rgba(33,33,33,1.000000)" stroke-width="1.04167"/>
<text x="766.519" y="353.616" fill="rgba(33,33,33,1.000000)" font-size="20.8333" font-family="sans-serif" text-anchor="start">-3</text>
<text x="832.144" y="353.616" fill="rgba(33,33,33,1.000000)" font-size="20.8333" font-family="sans-serif" text-anchor="start">-2</text>
<text x="897.769" y="353.616" fill="rgba(33,33,33,1.000000)" font-size="20.8333" font-family="sans-serif" text-anchor="start">-1</text>
<text x="966.863" y="353.616" fill="rgba(33,33,33,1.000000)" font-size="20.8333" font-family="sans-serif" text-anchor="start">0</text>
<text x="1030.93" y="353.616" fill="rgba(33,33,33,1.000000)" font-size="20.8333" font-family="sans-serif" text-anchor="start">1</text>
<text x="1096.55" y="353.616" fill="rgba(33,33,33,1.000000)" font-size="20.8333" font-family="sans-serif" text-anchor="start">2</text>
<text x="1162.18" y="353.616" fill="rgba(33,33,33,1.000000)" font-size="20.8333" font-family="sans-serif" text-anchor="start">3</text>
<line x1="764.844" y1="335.156" x2="769.531" y2="335.156" stroke="rgba(33,33,33,1.000000)" stroke-width="1.04167"/>
<line x1="1213.28" y1="335.156" x2="1208.59" y2="335.156" stroke="rgba(33,33,33,1.000000)" stroke-width="1.04167"/>
<line x1="764.844" y1="296.094" x2="769.531" y2="296.094" stroke="rgba(33,33,33,1.000000)" stroke-width="1.04167"/>
<line x1="1213.28" y1="296.094" x2="1208.59" y2="296.094" stroke="rgba(33,33,33,1.000000)" stroke-width="1.04167"/>
<line x1="764.844" y1="257.031" x2="769.531" y2="257.031" stroke="rgba(33,33,33,1.000000)" stroke-width="1.04167"/>
<line x1="1213.28" y1="257.031" x2="1208.59" y2="257.031" stroke="rgba(33,33,33,1.000000)" stroke-width="1.04167"/>
<line x1="764.844" y1="217.969" x2="769.531" y2="217.969" stroke="rgba(33,33,33,1.000000)" stroke-width="1.04167"/>
<line x1="1213.28" y1="217.969" x2="1208.59" y2="217.969" stroke="rgba(33,33,33,1.000000)" stroke-width="1.04167"/>
<line x1="764.844" y1="177.344" x2="769.531" y2="177.344" stroke="rgba(33,33,33,1.000000)" stroke-width="1.04167"/>
<line x1="1213.28" y1="177.344" x2="1208.59" y2="177.344" stroke="rgba(33,33,33,1.000000)" stroke-width="1.04167"/>
<line x1="764.844" y1="138.281" x2="769.531" y2="138.281" stroke="rgba(33,33,33,1.000000)" stroke-width="1.04167"/>
<line x1="1213.28" y1="138.281" x2="1208.59" y2="138.281" stroke="rgba(33,33,33,1.000000)" stroke-width="1.04167"/>
<line x1="764.844" y1="99.2188" x2="769.531" y2="99.2188" stroke="rgba(33,33,33,1.000000)" stroke-width="1.04167"/>
<line x1="1213.28" y1="99.2188" x2="1208.59" y2="99.2188" stroke="rgba(33,33,33,1.000000)" stroke-width="1.04167"/>
<line x1="764.844" y1="60.1562" x2="769.531" y2="60.1562" stroke="rgba(33,33,33,1.000000)" stroke-width="1.04167"/>
<line x1="1213.28" y1="60.1562" x2="1208.59" y2="60.1562" stroke="rgba(33,33,33,1.000000)" stroke-width="1.04167"/>
<text x="746.531" y="340.116" fill="rgba(33,33,33,1.000000)" font-size="20.8333" font-family="sans-serif" text-anchor="start">0</text>
<text x="734.944" y="301.054" fill="rgba(33,33,33,1.000000)" font-size="20.8333" font-family="sans-serif" text-anchor="start">10</text>
<text x="734.944" y="261.991" fill="rgba(33,33,33,1.000000)" font-size="20.8333" font-family="sans-serif" text-anchor="start">20</text>
<text x="734.944" y="222.929" fill="rgba(33,33,33,1.000000)" font-size="20.8333" font-family="sans-serif" text-anchor="start">30</text>
<text x="734.944" y="183.866" fill="rgba(33,33,33,1.000000)" font-size="20.8333" font-family="sans-serif" text-anchor="start">40</text>
<text x="734.944" y="144.804" fill="rgba(33,33,33,1.000000)" font-size="20.8333" font-family="sans-serif" text-anchor="start">50</text>
<text x="734.944" y="105.741" fill="rgba(33,33,33,1.000000)" font-size="20.8333" font-family="sans-serif" text-anchor="start">60</text>
<text x="734.944" y="65.1164" fill="rgba(33,33,33,1.000000)" font-size="20.8333" font-family="sans-serif" text-anchor="start">70</text>
<polygon points="174.219,717.969 622.656,717.969 622.656,442.969 174.219,442.969 " fill="rgba(255,255,255,1.000000)"/>
<g fill="rgba(16,112,189,1.000000)" stroke="rgba(33,33,33,1.000000)" stroke-width="1.04167">
<rect x="180.39" y="714.167" width="8.69065" height="4.58333"/>
<rect x="189.081" y="718.75" width="8.69065" height="0"/>
<rect x="197.771" y="718.75" width="8.69065" height="0"/>
<rect x="206.462" y="718.75" width="8.69065" height="0"/>
<rect x="215.153" y="705" width="8.69065" height="13.75"/>
<rect x="223.843" y="718.75" width="8.69065" height="0"/>
<rect x="232.534" y="714.167" width="8.69065" height="4.58333"/>
<rect x="241.225" y="709.583" width="8.69065" height="9.16667"/>
<rect x="249.915" y="700.417" width="8.69065" height="18.3333"/>
<rect x="258.606" y="709.583" width="8.69065" height="9.16667"/>
<rect x="267.297" y="672.917" width="8.69065" height="45.8333"/>
<rect x="275.987" y="677.5" width="8.69065" height="41.25"/>
<rect x="284.678" y="654.583" width="8.69065" height="64.1667"/>
<rect x="293.368" y="650" width="8.69065" height="68.75"/>
<rect x="302.059" y="636.25" width="8.69065" height="82.5"/>
<rect x="310.75" y="622.5" width="8.69065" height="96.25"/>
<rect x="319.44" y="636.25" width="8.69065" height="82.5"/>
<rect x="328.131" y="595" width="8.69065" height="123.75"/>
<rect x="336.822" y="526.25" width="8.69065" height="192.5"/>
<rect x="345.512" y="553.75" width="8.69065" height="165"/>
<rect x="354.203" y="485" width="8.69065" height="233.75"/>
<rect x="362.894" y="512.5" width="8.69065" height="206.25"/>
<rect x="371.584" y="503.333" width="8.69065" height="215.417"/>
<rect x="380.275" y="475.833" width="8.69065" height="242.917"/>
<rect x="388.966" y="462.083" width="8.69065" height="256.667"/>
<rect x="397.656" y="448.333" width="8.69065" height="270.417"/>
<rect x="406.347" y="443.75" width="8.69065" height="275"/>
<rect x="415.038" y="462.083" width="8.69065" height="256.667"/>
<rect x="423.728" y="457.5" width="8.69065" height="261.25"/>
<rect x="432.419" y="507.917" width="8.69065" height="210.833"/>
<rect x="441.11" y="526.25" width="8.69065" height="192.5"/>
<rect x="449.8" y="558.333" width="8.69065" height="160.417"/>
<rect x="458.491" y="567.5" width="8.69065" height="151.25"/>
<rect x="467.181" y="636.25" width="8.69065" height="82.5"/>
<rect x="475.872" y="613.333" width="8.69065" height="105.417"/>
<rect x="484.563" y="627.083" width="8.69065" height="91.6667"/>
<rect x="493.253" y="640.833" width="8.69065" height="77.9167"/>
<rect x="501.944" y="677.5" width="8.69065" height="41.25"/>
<rect x="510.635" y="654.583" width="8.69065" height="64.1667"/>
<rect x="519.325" y="650" width="8.69065" height="68.75"/>
<rect x="528.016" y="705" width="8.69065" height="13.75"/>
<rect x="536.707" y="695.833" width="8.69065" height="22.9167"/>
<rect x="545.397" y="691.25" width="8.69065" height="27.5"/>
<rect x="554.088" y="709.583" width="8.69065" height="9.16667"/>
<rect x="562.779" y="709.583" width="8.69065" height="9.16667"/>
<rect x="571.469" y="714.167" width="8.69065" height="4.58333"/>
<rect x="580.16" y="714.167" width="8.69065" height="4.58333"/>
<rect x="588.851" y="718.75" width="8.69065" height="0"/>
<rect x="597.541" y="718.75" width="8.69065" height="0"/>
<rect x="606.232" y="714.167" width="8.69065" height="4.58333"/>
</g>
<line x1="173.438" y1="718.75" x2="621.875" y2="718.75" stroke="rgba(33,33,33,1.000000)" stroke-width="1.04167"/>
<line x1="174.219" y1="717.969" x2="622.656" y2="717.969" stroke="rgba(33,33,33,1.000000)" stroke-width="1.04167"/>
<line x1="174.219" y1="442.969" x2="622.656" y2="442.969" stroke="rgba(33,33,33,1.000000)" stroke-width="1.04167"/>
<line x1="174.219" y1="717.969" x2="174.219" y2="442.969" stroke="rgba(33,33,33,1.000000)" stroke-width="1.04167"/>
<line x1="622.656" y1="717.969" x2="622.656" y2="442.969" stroke="rgba(33,33,33,1.000000)" stroke-width="1.04167"/>
<line x1="211.719" y1="717.969" x2="211.719" y2="713.281" stroke="rgba(33,33,33,1.000000)" stroke-width="1.04167"/>
<line x1="211.719" y1="442.969" x2="211.719" y2="447.656" stroke="rgba(33,33,33,1.000000)" stroke-width="1.04167"/>
<line x1="274.219" y1="717.969" x2="274.219" y2="713.281" stroke="rgba(33,33,33,1.000000)" stroke-width="1.04167"/>
<line x1="274.219" y1="442.969" x2="274.219" y2="447.656" stroke="rgba(33,33,33,1.000000)" stroke-width="1.04167"/>
<line x1="336.719" y1="717.969" x2="336.719" y2="713.281" stroke="rgba(33,33,33,1.000000)" stroke-width="1.04167"/>
<line x1="336.719" y1="442.969" x2="336.719" y2="447.656" stroke="rgba(33,33,33,1.000000)" stroke-width="1.04167"/>
<line x1="399.219" y1="717.969" x2="399.219" y2="713.281" stroke="rgba(33,33,33,1.000000)" stroke-width="1.04167"/>
<line x1="399.219" y1="442.969" x2="399.219" y2="447.656" stroke="rgba(33,33,33,1.000000)" stroke-width="1.04167"/>
<line x1="461.719" y1="717.969" x2="461.719" y2="713.281" stroke="rgba(33,33,33,1.000000)" stroke-width="1.04167"/>
<line x1="461.719" y1="442.969" x2="461.719" y2="447.656" stroke="rgba(33,33,33,1.000000)" stroke-width="1.04167"/>
<line x1="524.219" y1="717.969" x2="524.219" y2="713.281" stroke="rgba(33,33,33,1.000000)" stroke-width="1.04167"/>
<line x1="524.219" y1="442.969" x2="524.219" y2="447.656" stroke="rgba(33,33,33,1.000000)" stroke-width="1.04167"/>
<line x1="586.719" y1="717.969" x2="586.719" y2="713.281" stroke="rgba(33,33,33,1.000000)" stroke-width="1.04167"/>
<line x1="586.719" y1="442.969" x2="586.719" y2="447.656" stroke="rgba(33,33,33,1.000000)" stroke-width="1.04167"/>
<text x="202.457" y="736.429" fill="rgba(33,33,33,1.000000)" font-size="20.8333" font-family="sans-serif" text-anchor="start">-3</text>
<text x="264.957" y="736.429" fill="rgba(33,33,33,1.000000)" font-size="20.8333" font-family="sans-serif" text-anchor="start">-2</text>
<text x="327.457" y="736.429" fill="rgba(33,33,33,1.000000)" font-size="20.8333" font-family="sans-serif" text-anchor="start">-1</text>
<text x="393.425" y="736.429" fill="rgba(33,33,33,1.000000)" font-size="20.8333" font-family="sans-serif" text-anchor="start">0</text>
<text x="454.363" y="736.429" fill="rgba(33,33,33,1.000000)" font-size="20.8333" font-family="sans-serif" text-anchor="start">1</text>
<text x="516.863" y="736.429" fill="rgba(33,33,33,1.000000)" font-size="20.8333" font-family="sans-serif" text-anchor="start">2</text>
<text x="579.363" y="736.429" fill="rgba(33,33,33,1.000000)" font-size="20.8333" font-family="sans-serif" text-anchor="start">3</text>
<line x1="174.219" y1="717.969" x2="178.906" y2="717.969" stroke="rgba(33,33,33,1.000000)" stroke-width="1.04167"/>
<line x1="622.656" y1="717.969" x2="617.969" y2="717.969" stroke="rgba(33,33,33,1.000000)" stroke-width="1.04167"/>
<line x1="174.219" y1="672.656" x2="178.906" y2="672.656" stroke="rgba(33,33,33,1.000000)" stroke-width="1.04167"/>
<line x1="622.656" y1="672.656" x2="617.969" y2="672.656" stroke="rgba(33,33,33,1.000000)" stroke-width="1.04167"/>
<line x1="174.219" y1="625.781" x2="178.906" y2="625.781" stroke="rgba(33,33,33,1.000000)" stroke-width="1.04167"/>
<line x1="622.656" y1="625.781" x2="617.969" y2="625.781" stroke="rgba(33,33,33,1.000000)" stroke-width="1.04167"/>
<line x1="174.219" y1="580.469" x2="178.906" y2="580.469" stroke="rgba(33,33,33,1.000000)" stroke-width="1.04167"/>
<line x1="622.656" y1="580.469" x2="617.969" y2="580.469" stroke="rgba(33,33,33,1.000000)" stroke-width="1.04167"/>
<line x1="174.219" y1="535.156" x2="178.906" y2="535.156" stroke="rgba(33,33,33,1.000000)" stroke-width="1.04167"/>
<line x1="622.656" y1="535.156" x2="617.969" y2="535.156" stroke="rgba(33,33,33,1.000000)" stroke-width="1.04167"/>
<line x1="174.219" y1="488.281" x2="178.906" y2="488.281" stroke="rgba(33,33,33,1.000000)" stroke-width="1.04167"/>
<line x1="622.656" y1="488.281" x2="617.969" y2="488.281" stroke="rgba(33,33,33,1.000000)" stroke-width="1.04167"/>
<line x1="174.219" y1="442.969" x2="178.906" y2="442.969" stroke="rgba(33,33,33,1.000000)" stroke-width="1.04167"/>
<line x1="622.656" y1="442.969" x2="617.969" y2="442.969" stroke="rgba(33,33,33,1.000000)" stroke-width="1.04167"/>
<text x="155.906" y="722.929" fill="rgba(33,33,33,1.000000)" font-size="20.8333" font-family="sans-serif" text-anchor="start">0</text>
<text x="144.319" y="677.616" fill="rgba(33,33,33,1.000000)" font-size="20.8333" font-family="sans-serif" text-anchor="start">10</text>
<text x="144.319" y="632.304" fill="rgba(33,33,33,1.000000)" font-size="20.8333" font-family="sans-serif" text-anchor="start">20</text>
<text x="144.319" y="585.429" fill="rgba(33,33,33,1.000000)" font-size="20.8333" font-family="sans-serif" text-anchor="start">30</text>
<text x="144.319" y="540.116" fill="rgba(33,33,33,1.000000)" font-size="20.8333" font-family="sans-serif" text-anchor="start">40</text>
<text x="144.319" y="494.804" fill="rgba(33,33,33,1.000000)" font-size="20.8333" font-family="sans-serif" text-anchor="start">50</text>
<text x="144.319" y="447.929" fill="rgba(33,33,33,1.000000)" font-size="20.8333" font-family="sans-serif" text-anchor="start">60</text>
<polygon points="764.844,717.969 1213.28,717.969 1213.28,442.969 764.844,442.969 " fill="rgba(255,255,255,1.000000)"/>
<g fill="rgba(16,112,189,1.000000)" stroke="rgba(33,33,33,1.000000)" stroke-width="1.04167">
<rect x="771.015" y="709.583" width="8.69065" height="9.16667"/>
<rect x="779.706" y="718.75" width="8.69065" height="0"/>
<rect x="788.396" y="714.167" width="8.69065" height="4.58333"/>
<rect x="797.087" y="705" width="8.69065" height="13.75"/>
<rect x="805.778" y="705" width="8.69065" height="13.75"/>
<rect x="814.468" y="668.333" width="8.69065" height="50.4167"/>
<rect x="823.159" y="691.25" width="8.69065" height="27.5"/>
<rect x="831.85" y="682.083" width="8.69065" height="36.6667"/>
<rect x="840.54" y="672.917" width="8.69065" height="45.8333"/>
<rect x="849.231" y="631.667" width="8.69065" height="87.0833"/>
<rect x="857.922" y="682.083" width="8.69065" height="36.6667"/>
<rect x="866.612" y="659.167" width="8.69065" height="59.5833"/>
<rect x="875.303" y="617.917" width="8.69065" height="100.833"/>
<rect x="883.993" y="595" width="8.69065" height="123.75"/>
<rect x="892.684" y="595" width="8.69065" height="123.75"/>
<rect x="901.375" y="604.167" width="8.69065" height="114.583"/>
<rect x="910.065" y="549.167" width="8.69065" height="169.583"/>
<rect x="918.756" y="567.5" width="8.69065" height="151.25"/>
<rect x="927.447" y="489.583" width="8.69065" height="229.167"/>
<rect x="936.137" y="544.583" width="8.69065" height="174.167"/>
<rect x="944.828" y="558.333" width="8.69065" height="160.417"/>
<rect x="953.519" y="562.917" width="8.69065" height="155.833"/>
<rect x="962.209" y="448.333" width="8.69065" height="270.417"/>
<rect x="970.9" y="480.417" width="8.69065" height="238.333"/>
<rect x="979.591" y="485" width="8.69065" height="233.75"/>
<rect x="988.281" y="480.417" width="8.69065" height="238.333"/>
<rect x="996.972" y="526.25" width="8.69065" height="192.5"/>
<rect x="1005.66" y="558.333" width="8.69065" height="160.417"/>
<rect x="1014.35" y="503.333" width="8.69065" height="215.417"/>
<rect x="1023.04" y="595" width="8.69065" height="123.75"/>
<rect x="1031.73" y="498.75" width="8.69065" height="220"/>
<rect x="1040.43" y="562.917" width="8.69065" height="155.833"/>
<rect x="1049.12" y="595" width="8.69065" height="123.75"/>
<rect x="1057.81" y="595" width="8.69065" height="123.75"/>
<rect x="1066.5" y="668.333" width="8.69065" height="50.4167"/>
<rect x="1075.19" y="650" width="8.69065" height="68.75"/>
<rect x="1083.88" y="659.167" width="8.69065" height="59.5833"/>
<rect x="1092.57" y="654.583" width="8.69065" height="64.1667"/>
<rect x="1101.26" y="668.333" width="8.69065" height="50.4167"/>
<rect x="1109.95" y="700.417" width="8.69065" height="18.3333"/>
<rect x="1118.64" y="691.25" width="8.69065" height="27.5"/>
<rect x="1127.33" y="695.833" width="8.69065" height="22.9167"/>
<rect x="1136.02" y="718.75" width="8.69065" height="0"/>
<rect x="1144.71" y="705" width="8.69065" height="13.75"/>
<rect x="1153.4" y="714.167" width="8.69065" height="4.58333"/>
<rect x="1162.09" y="714.167" width="8.69065" height="4.58333"/>
<rect x="1170.78" y="714.167" width="8.69065" height="4.58333"/>
<rect x="1179.48" y="714.167" width="8.69065" height="4.58333"/>
<rect x="1188.17" y="718.75" width="8.69065" height="0"/>
<rect x="1196.86" y="714.167" width="8.69065" height="4.58333"/>
</g>
<line x1="764.062" y1="718.75" x2="1212.5" y2="718.75" stroke="rgba(33,33,33,1.000000)" stroke-width="1.04167"/>
<line x1="764.844" y1="717.969" x2="1213.28" y2="717.969" stroke="rgba(33,33,33,1.000000)" stroke-width="1.04167"/>
<line x1="764.844" y1="442.969" x2="1213.28" y2="442.969" stroke="rgba(33,33,33,1.000000)" stroke-width="1.04167"/>
<line x1="764.844" y1="717.969" x2="764.844" y2="442.969" stroke="rgba(33,33,33,1.000000)" stroke-width="1.04167"/>
<line x1="1213.28" y1="717.969" x2="1213.28" y2="442.969" stroke="rgba(33,33,33,1.000000)" stroke-width="1.04167"/>
<line x1="830.469" y1="717.969" x2="830.469" y2="713.281" stroke="rgba(33,33,33,1.000000)" stroke-width="1.04167"/>
<line x1="830.469" y1="442.969" x2="830.469" y2="447.656" stroke="rgba(33,33,33,1.000000)" stroke-width="1.04167"/>
<line x1="902.344" y1="717.969" x2="902.344" y2="713.281" stroke="rgba(33,33,33,1.000000)" stroke-width="1.04167"/>
<line x1="902.344" y1="442.969" x2="902.344" y2="447.656" stroke="rgba(33,33,33,1.000000)" stroke-width="1.04167"/>
<line x1="972.656" y1="717.969" x2="972.656" y2="713.281" stroke="rgba(33,33,33,1.000000)" stroke-width="1.04167"/>
<line x1="972.656" y1="442.969" x2="972.656" y2="447.656" stroke="rgba(33,33,33,1.000000)" stroke-width="1.04167"/>
<line x1="1044.53" y1="717.969" x2="1044.53" y2="713.281" stroke="rgba(33,33,33,1.000000)" stroke-width="1.04167"/>
<line x1="1044.53" y1="442.969" x2="1044.53" y2="447.656" stroke="rgba(33,33,33,1.000000)" stroke-width="1.04167"/>
<line x1="1116.41" y1="717.969" x2="1116.41" y2="713.281" stroke="rgba(33,33,33,1.000000)" stroke-width="1.04167"/>
<line x1="1116.41" y1="442.969" x2="1116.41" y2="447.656" stroke="rgba(33,33,33,1.000000)" stroke-width="1.04167"/>
<line x1="1186.72" y1="717.969" x2="1186.72" y2="713.281" stroke="rgba(33,33,33,1.000000)" stroke-width="1.04167"/>
<line x1="1186.72" y1="442.969" x2="1186.72" y2="447.656" stroke="rgba(33,33,33,1.000000)" stroke-width="1.04167"/>
<text x="819.644" y="736.429" fill="rgba(33,33,33,1.000000)" font-size="20.8333" font-family="sans-serif" text-anchor="start">-2</text>
<text x="891.519" y="736.429" fill="rgba(33,33,33,1.000000)" font-size="20.8333" font-family="sans-serif" text-anchor="start">-1</text>
<text x="966.863" y="736.429" fill="rgba(33,33,33,1.000000)" font-size="20.8333" font-family="sans-serif" text-anchor="start">0</text>
<text x="1037.18" y="736.429" fill="rgba(33,33,33,1.000000)" font-size="20.8333" font-family="sans-serif" text-anchor="start">1</text>
<text x="1109.05" y="736.429" fill="rgba(33,33,33,1.000000)" font-size="20.8333" font-family="sans-serif" text-anchor="start">2</text>
<text x="1180.93" y="736.429" fill="rgba(33,33,33,1.000000)" font-size="20.8333" font-family="sans-serif" text-anchor="start">3</text>
<line x1="764.844" y1="717.969" x2="769.531" y2="717.969" stroke="rgba(33,33,33,1.000000)" stroke-width="1.04167"/>
<line x1="1213.28" y1="717.969" x2="1208.59" y2="717.969" stroke="rgba(33,33,33,1.000000)" stroke-width="1.04167"/>
<line x1="764.844" y1="672.656" x2="769.531" y2="672.656" stroke="rgba(33,33,33,1.000000)" stroke-width="1.04167"/>
<line x1="1213.28" y1="672.656" x2="1208.59" y2="672.656" stroke="rgba(33,33,33,1.000000)" stroke-width="1.04167"/>
<line x1="764.844" y1="625.781" x2="769.531" y2="625.781" stroke="rgba(33,33,33,1.000000)" stroke-width="1.04167"/>
<line x1="1213.28" y1="625.781" x2="1208.59" y2="625.781" stroke="rgba(33,33,33,1.000000)" stroke-width="1.04167"/>
<line x1="764.844" y1="580.469" x2="769.531" y2="580.469" stroke="rgba(33,33,33,1.000000)" stroke-width="1.04167"/>
<line x1="1213.28" y1="580.469" x2="1208.59" y2="580.469" stroke="rgba(33,33,33,1.000000)" stroke-width="1.04167"/>
<line x1="764.844" y1="535.156" x2="769.531" y2="535.156" stroke="rgba(33,33,33,1.000000)" stroke-width="1.04167"/>
<line x1="1213.28" y1="535.156" x2="1208.59" y2="535.156" stroke="rgba(33,33,33,1.000000)" stroke-width="1.04167"/>
<line x1="764.844" y1="488.281" x2="769.531" y2="488.281" stroke="rgba(33,33,33,1.000000)" stroke-width="1.04167"/>
<line x1="1213.28" y1="488.281" x2="1208.59" y2="488.281" stroke="rgba(33,33,33,1.000000)" stroke-width="1.04167"/>
<line x1="764.844" y1="442.969" x2="769.531" y2="442.969" stroke="rgba(33,33,33,1.000000)" stroke-width="1.04167"/>
<line x1="1213.28" y1="442.969" x2="1208.59" y2="442.969" stroke="rgba(33,33,33,1.000000)" stroke-width="1.04167"/>
<text x="746.531" y="722.929" fill="rgba(33,33,33,1.000000)" font-size="20.8333" font-family="sans-serif" text-anchor="start">0</text>
<text x="734.944" y="677.616" fill="rgba(33,33,33,1.000000)" font-size="20.8333" font-family="sans-serif" text-anchor="start">10</text>
<text x="734.944" y="632.304" fill="rgba(33,33,33,1.000000)" font-size="20.8333" font-family="sans-serif" text-anchor="start">20</text>
<text x="734.944" y="585.429" fill="rgba(33,33,33,1.000000)" font-size="20.8333" font-family="sans-serif" text-anchor="start">30</text>
<text x="734.944" y="540.116" fill="rgba(33,33,33,1.000000)" font-size="20.8333" font-family="sans-serif" text-anchor="start">40</text>
<text x="734.944" y="494.804" fill="rgba(33,33,33,1.000000)" font-size="20.8333" font-family="sans-serif" text-anchor="start">50</text>
<text x="734.944" y="447.929" fill="rgba(33,33,33,1.000000)" font-size="20.8333" font-family="sans-serif" text-anchor="start">60</text>
</svg>
