<svg width="859.52" height="517.12" viewBox="0 0 1343 808" xmlns="http://www.w3.org/2000/svg">
<rect x="0" y="0" width="1343" height="808" fill="#ffffff"/>
<rect x="0" y="0" width="1342.19" height="807.812" fill="rgba(255,255,255,1.000000)"/>
<polygon points="174.219,717.969 1213.28,717.969 1213.28,60.1562 174.219,60.1562 " fill="rgba(255,255,255,1.000000)"/>
<polyline points="173.438,389.844 188.281,357.008 203.125,324.5 217.969,292.645 232.812,261.762 247.656,232.158 262.5,204.129 277.344,177.957 292.188,153.901 307.031,132.203 321.875,113.079 336.719,96.7201 351.563,83.2903 366.406,72.9234 381.25,65.7232 396.094,61.7614 410.938,61.0777 425.781,63.679 440.625,69.5392 455.469,78.5997 470.312,90.7701 485.156,105.929 500,123.924 514.844,144.577 529.688,167.68 544.531,193.003 559.375,220.292 574.219,249.276 589.062,279.664 603.906,311.153 618.75,343.428 633.594,376.168 648.438,409.043 663.281,441.727 678.125,473.893 692.969,505.219 707.812,535.391 722.656,564.11 737.5,591.088 752.344,616.054 767.188,638.761 782.031,658.98 796.875,676.51 811.719,691.176 826.562,702.832 841.406,711.36 856.25,716.675 871.094,718.725 885.938,717.489 900.781,712.979 915.625,705.24 930.469,694.35 945.312,680.418 960.156,663.582 975,644.011 989.844,621.9 1004.69,597.471 1019.53,570.968 1034.38,542.654 1049.22,512.814 1064.06,481.745 1078.91,449.758 1093.75,417.172 " fill="none" stroke="rgba(16,112,189,1.000000)" stroke-width="1.04167"/>
<line x1="174.219" y1="717.969" x2="1213.28" y2="717.969" stroke="rgba(33,33,33,1.000000)" stroke-width="1.04167"/>
<line x1="174.219" y1="60.1562" x2="1213.28" y2="60.1562" stroke="rgba(33,33,33,1.000000)" stroke-width="1.04167"/>
<line x1="174.219" y1="717.969" x2="174.219" y2="60.1562" stroke="rgba(33,33,33,1.000000)" stroke-width="1.04167"/>
<line x1="1213.28" y1="717.969" x2="1213.28" y2="60.1562" stroke="rgba(33,33,33,1.000000)" stroke-width="1.04167"/>
<line x1="174.219" y1="717.969" x2="174.219" y2="707.031" stroke="rgba(33,33,33,1.000000)" stroke-width="1.04167"/>
<line x1="174.219" y1="60.1562" x2="174.219" y2="71.0938" stroke="rgba(33,33,33,1.000000)" stroke-width="1.04167"/>
<line x1="322.656" y1="717.969" x2="322.656" y2="707.031" stroke="rgba(33,33,33,1.000000)" stroke-width="1.04167"/>
<line x1="322.656" y1="60.1562" x2="322.656" y2="71.0938" stroke="rgba(33,33,33,1.000000)" stroke-width="1.04167"/>
<line x1="471.094" y1="717.969" x2="471.094" y2="707.031" stroke="rgba(33,33,33,1.000000)" stroke-width="1.04167"/>
<line x1="471.094" y1="60.1562" x2="471.094" y2="71.0938" stroke="rgba(33,33,33,1.000000)" stroke-width="1.04167"/>
<line x1="619.531" y1="717.969" x2="619.531" y2="707.031" stroke="rgba(33,33,33,1.000000)" stroke-width="1.04167"/>
<line x1="619.531" y1="60.1562" x2="619.531" y2="71.0938" stroke="rgba(33,33,33,1.000000)" stroke-width="1.04167"/>
<line x1="767.969" y1="717.969" x2="767.969" y2="707.031" stroke="rgba(33,33,33,1.000000)" stroke-width="1.04167"/>
<line x1="767.969" y1="60.1562" x2="767.969" y2="71.0938" stroke="rgba(33,33,33,1.000000)" stroke-width="1.04167"/>
<line x1="916.406" y1="717.969" x2="916.406" y2="707.031" stroke="rgba(33,33,33,1.000000)" stroke-width="1.04167"/>
<line x1="916.406" y1="60.1562" x2="916.406" y2="71.0938" stroke="rgba(33,33,33,1.000000)" stroke-width="1.04167"/>
<line x1="1064.84" y1="717.969" x2="1064.84" y2="707.031" stroke="rgba(33,33,33,1.000000)" stroke-width="1.04167"/>
<line x1="1064.84" y1="60.1562" x2="1064.84" y2="71.0938" stroke="rgba(33,33,33,1.000000)" stroke-width="1.04167"/>
<line x1="1213.28" y1="717.969" x2="1213.28" y2="707.031" stroke="rgba(33,33,33,1.000000)" stroke-width="1.04167"/>
<line x1="1213.28" y1="60.1562" x2="1213.28" y2="71.0938" stroke="rgba(33,33,33,1.000000)" stroke-width="1.04167"/>
<text x="168.425" y="742.171" fill="rgba(33,33,33,1.000000)" font-size="20.8333" font-family="sans-serif" text-anchor="start">0</text>
<text x="316.863" y="742.171" fill="rgba(33,33,33,1.000000)" font-size="20.8333" font-family="sans-serif" text-anchor="start">1</text>
<text x="465.3" y="742.171" fill="rgba(33,33,33,1.000000)" font-size="20.8333" font-family="sans-serif" text-anchor="start">2</text>
<text x="613.738" y="742.171" fill="rgba(33,33,33,1.000000)" font-size="20.8333" font-family="sans-serif" text-anchor="start">3</text>
<text x="762.175" y="742.171" fill="rgba(33,33,33,1.000000)" font-size="20.8333" font-family="sans-serif" text-anchor="start">4</text>
<text x="910.613" y="742.171" fill="rgba(33,33,33,1.000000)" font-size="20.8333" font-family="sans-serif" text-anchor="start">5</text>
<text x="1059.05" y="742.171" fill="rgba(33,33,33,1.000000)" font-size="20.8333" font-family="sans-serif" text-anchor="start">6</text>
<text x="1207.49" y="742.171" fill="rgba(33,33,33,1.000000)" font-size="20.8333" font-family="sans-serif" text-anchor="start">7</text>
<line x1="174.219" y1="717.969" x2="185.156" y2="717.969" stroke="rgba(33,33,33,1.000000)" stroke-width="1.04167"/>
<line x1="1213.28" y1="717.969" x2="1202.34" y2="717.969" stroke="rgba(33,33,33,1.000000)" stroke-width="1.04167"/>
<line x1="174.219" y1="652.344" x2="185.156" y2="652.344" stroke="rgba(33,33,33,1.000000)" stroke-width="1.04167"/>
<line x1="1213.28" y1="652.344" x2="1202.34" y2="652.344" stroke="rgba(33,33,33,1.000000)" stroke-width="1.04167"/>
<line x1="174.219" y1="586.719" x2="185.156" y2="586.719" stroke="rgba(33,33,33,1.000000)" stroke-width="1.04167"/>
<line x1="1213.28" y1="586.719" x2="1202.34" y2="586.719" stroke="rgba(33,33,33,1.000000)" stroke-width="1.04167"/>
<line x1="174.219" y1="521.094" x2="185.156" y2="521.094" stroke="rgba(33,33,33,1.000000)" stroke-width="1.04167"/>
<line x1="1213.28" y1="521.094" x2="1202.34" y2="521.094" stroke="rgba(33,33,33,1.000000)" stroke-width="1.04167"/>
<line x1="174.219" y1="455.469" x2="185.156" y2="455.469" stroke="rgba(33,33,33,1.000000)" stroke-width="1.04167"/>
<line x1="1213.28" y1="455.469" x2="1202.34" y2="455.469" stroke="rgba(33,33,33,1.000000)" stroke-width="1.04167"/>
<line x1="174.219" y1="388.281" x2="185.156" y2="388.281" stroke="rgba(33,33,33,1.000000)" stroke-width="1.04167"/>
<line x1="1213.28" y1="388.281" x2="1202.34" y2="388.281" stroke="rgba(33,33,33,1.000000)" stroke-width="1.04167"/>
<line x1="174.219" y1="322.656" x2="185.156" y2="322.656" stroke="rgba(33,33,33,1.000000)" stroke-width="1.04167"/>
<line x1="1213.28" y1="322.656" x2="1202.34" y2="322.656" stroke="rgba(33,33,33,1.000000)" stroke-width="1.04167"/>
<line x1="174.219" y1="257.031" x2="185.156" y2="257.031" stroke="rgba(33,33,33,1.000000)" stroke-width="1.04167"/>
<line x1="1213.28" y1="257.031" x2="1202.34" y2="257.031" stroke="rgba(33,33,33,1.000000)" stroke-width="1.04167"/>
<line x1="174.219" y1="191.406" x2="185.156" y2="191.406" stroke="rgba(33,33,33,1.000000)" stroke-width="1.04167"/>
<line x1="1213.28" y1="191.406" x2="1202.34" y2="191.406" stroke="rgba(33,33,33,1.000000)" stroke-width="1.04167"/>
<line x1="174.219" y1="125.781" x2="185.156" y2="125.781" stroke="rgba(33,33,33,1.000000)" stroke-width="1.04167"/>
<line x1="1213.28" y1="125.781" x2="1202.34" y2="125.781" stroke="rgba(33,33,33,1.000000)" stroke-width="1.04167"/>
<line x1="174.219" y1="60.1562" x2="185.156" y2="60.1562" stroke="rgba(33,33,33,1.000000)" stroke-width="1.04167"/>
<line x1="1213.28" y1="60.1562" x2="1202.34" y2="60.1562" stroke="rgba(33,33,33,1.000000)" stroke-width="1.04167"/>
<text x="140.109" y="722.929" fill="rgba(33,33,33,1.000000)" font-size="20.8333" font-family="sans-serif" text-anchor="start">-1</text>
<text x="122.734" y="657.304" fill="rgba(33,33,33,1.000000)" font-size="20.8333" font-family="sans-serif" text-anchor="start">-0.8</text>
<text x="122.734" y="591.679" fill="rgba(33,33,33,1.000000)" font-size="20.8333" font-family="sans-serif" text-anchor="start">-0.6</text>
<text x="122.734" y="526.054" fill="rgba(33,33,33,1.000000)" font-size="20.8333" font-family="sans-serif" text-anchor="start">-0.4</text>
<text x="122.734" y="460.429" fill="rgba(33,33,33,1.000000)" font-size="20.8333" font-family="sans-serif" text-anchor="start">-0.2</text>
<text x="147.046" y="394.804" fill="rgba(33,33,33,1.000000)" font-size="20.8333" font-family="sans-serif" text-anchor="start">0</text>
<text x="129.672" y="329.179" fill="rgba(33,33,33,1.000000)" font-size="20.8333" font-family="sans-serif" text-anchor="start">0.2</text>
<text x="129.672" y="263.554" fill="rgba(33,33,33,1.000000)" font-size="20.8333" font-family="sans-serif" text-anchor="start">0.4</text>
<text x="129.672" y="197.929" fill="rgba(33,33,33,1.000000)" font-size="20.8333" font-family="sans-serif" text-anchor="start">0.6</text>
<text x="129.672" y="132.304" fill="rgba(33,33,33,1.000000)" font-size="20.8333" font-family="sans-serif" text-anchor="start">0.8</text>
<text x="147.046" y="65.1164" fill="rgba(33,33,33,1.000000)" font-size="20.8333" font-family="sans-serif" text-anchor="start">1</text>
</svg>
