<svg width="859.52" height="517.12" viewBox="0 0 1343 808" xmlns="http://www.w3.org/2000/svg">
<rect x="0" y="0" width="1343" height="808" fill="#ffffff"/>
<rect x="0" y="0" width="1342.19" height="807.812" fill="rgba(255,255,255,1.000000)"/>
<polygon points="174.219,335.156 1213.28,335.156 1213.28,60.1562 174.219,60.1562 " fill="rgba(255,255,255,1.000000)"/>
<polyline points="173.438,60.9375 191.049,93.2785 208.66,121.25 226.271,139.534 243.882,152.884 261.494,163.361 279.105,171.97 296.716,179.274 314.327,185.613 331.939,191.213 349.55,196.227 367.161,200.766 384.772,204.911 402.383,208.727 419.995,212.26 437.606,215.551 455.217,218.629 472.828,221.522 490.44,224.249 508.051,226.83 525.662,229.278 543.273,231.607 560.885,233.827 578.496,235.95 596.107,237.981 613.718,239.93 631.329,241.803 648.941,243.605 666.552,245.342 684.163,247.017 701.774,248.636 719.386,250.202 736.997,251.718 754.608,253.188 772.219,254.614 789.831,255.998 807.442,257.343 825.053,258.652 842.664,259.926 860.275,261.166 877.887,262.376 895.498,263.555 913.109,264.706 930.72,265.83 948.332,266.928 965.943,268.001 983.554,269.051 1001.17,270.078 1018.78,271.084 1036.39,272.069 1054,273.034 1071.61,273.98 1089.22,274.907 1106.83,275.817 1124.44,276.71 1142.06,277.586 1159.67,278.447 1177.28,279.293 1194.89,280.123 1212.5,280.94 " fill="none" stroke="rgba(16,112,189,1.000000)" stroke-width="1.04167"/>
<line x1="174.219" y1="335.156" x2="1213.28" y2="335.156" stroke="rgba(33,33,33,1.000000)" stroke-width="1.04167"/>
<line x1="174.219" y1="60.1562" x2="1213.28" y2="60.1562" stroke="rgba(33,33,33,1.000000)" stroke-width="1.04167"/>
<line x1="174.219" y1="335.156" x2="174.219" y2="60.1562" stroke="rgba(33,33,33,1.000000)" stroke-width="1.04167"/>
<line x1="1213.28" y1="335.156" x2="1213.28" y2="60.1562" stroke="rgba(33,33,33,1.000000)" stroke-width="1.04167"/>
<line x1="174.219" y1="335.156" x2="174.219" y2="324.219" stroke="rgba(33,33,33,1.000000)" stroke-width="1.04167"/>
<line x1="174.219" y1="60.1562" x2="174.219" y2="71.0938" stroke="rgba(33,33,33,1.000000)" stroke-width="1.04167"/>
<line x1="278.906" y1="335.156" x2="278.906" y2="324.219" stroke="rgba(33,33,33,1.000000)" stroke-width="1.04167"/>
<line x1="278.906" y1="60.1562" x2="278.906" y2="71.0938" stroke="rgba(33,33,33,1.000000)" stroke-width="1.04167"/>
<line x1="382.031" y1="335.156" x2="382.031" y2="324.219" stroke="rgba(33,33,33,1.000000)" stroke-width="1.04167"/>
<line x1="382.031" y1="60.1562" x2="382.031" y2="71.0938" stroke="rgba(33,33,33,1.000000)" stroke-width="1.04167"/>
<line x1="486.719" y1="335.156" x2="486.719" y2="324.219" stroke="rgba(33,33,33,1.000000)" stroke-width="1.04167"/>
<line x1="486.719" y1="60.1562" x2="486.719" y2="71.0938" stroke="rgba(33,33,33,1.000000)" stroke-width="1.04167"/>
<line x1="589.844" y1="335.156" x2="589.844" y2="324.219" stroke="rgba(33,33,33,1.000000)" stroke-width="1.04167"/>
<line x1="589.844" y1="60.1562" x2="589.844" y2="71.0938" stroke="rgba(33,33,33,1.000000)" stroke-width="1.04167"/>
<line x1="694.531" y1="335.156" x2="694.531" y2="324.219" stroke="rgba(33,33,33,1.000000)" stroke-width="1.04167"/>
<line x1="694.531" y1="60.1562" x2="694.531" y2="71.0938" stroke="rgba(33,33,33,1.000000)" stroke-width="1.04167"/>
<line x1="797.656" y1="335.156" x2="797.656" y2="324.219" stroke="rgba(33,33,33,1.000000)" stroke-width="1.04167"/>
<line x1="797.656" y1="60.1562" x2="797.656" y2="71.0938" stroke="rgba(33,33,33,1.000000)" stroke-width="1.04167"/>
<line x1="902.344" y1="335.156" x2="902.344" y2="324.219" stroke="rgba(33,33,33,1.000000)" stroke-width="1.04167"/>
<line x1="902.344" y1="60.1562" x2="902.344" y2="71.0938" stroke="rgba(33,33,33,1.000000)" stroke-width="1.04167"/>
<line x1="1005.47" y1="335.156" x2="1005.47" y2="324.219" stroke="rgba(33,33,33,1.000000)" stroke-width="1.04167"/>
<line x1="1005.47" y1="60.1562" x2="1005.47" y2="71.0938" stroke="rgba(33,33,33,1.000000)" stroke-width="1.04167"/>
<line x1="1110.16" y1="335.156" x2="1110.16" y2="324.219" stroke="rgba(33,33,33,1.000000)" stroke-width="1.04167"/>
<line x1="1110.16" y1="60.1562" x2="1110.16" y2="71.0938" stroke="rgba(33,33,33,1.000000)" stroke-width="1.04167"/>
<line x1="1213.28" y1="335.156" x2="1213.28" y2="324.219" stroke="rgba(33,33,33,1.000000)" stroke-width="1.04167"/>
<line x1="1213.28" y1="60.1562" x2="1213.28" y2="71.0938" stroke="rgba(33,33,33,1.000000)" stroke-width="1.04167"/>
<text x="168.425" y="353.616" fill="rgba(33,33,33,1.000000)" font-size="20.8333" font-family="sans-serif" text-anchor="start">0</text>
<text x="265.757" y="353.616" fill="rgba(33,33,33,1.000000)" font-size="20.8333" font-family="sans-serif" text-anchor="start">10</text>
<text x="370.445" y="353.616" fill="rgba(33,33,33,1.000000)" font-size="20.8333" font-family="sans-serif" text-anchor="start">20</text>
<text x="473.57" y="353.616" fill="rgba(33,33,33,1.000000)" font-size="20.8333" font-family="sans-serif" text-anchor="start">30</text>
<text x="578.257" y="353.616" fill="rgba(33,33,33,1.000000)" font-size="20.8333" font-family="sans-serif" text-anchor="start">40</text>
<text x="681.382" y="353.616" fill="rgba(33,33,33,1.000000)" font-size="20.8333" font-family="sans-serif" text-anchor="start">50</text>
<text x="786.07" y="353.616" fill="rgba(33,33,33,1.000000)" font-size="20.8333" font-family="sans-serif" text-anchor="start">60</text>
<text x="889.195" y="353.616" fill="rgba(33,33,33,1.000000)" font-size="20.8333" font-family="sans-serif" text-anchor="start">70</text>
<text x="993.882" y="353.616" fill="rgba(33,33,33,1.000000)" font-size="20.8333" font-family="sans-serif" text-anchor="start">80</text>
<text x="1097.01" y="353.616" fill="rgba(33,33,33,1.000000)" font-size="20.8333" font-family="sans-serif" text-anchor="start">90</text>
<text x="1195.9" y="353.616" fill="rgba(33,33,33,1.000000)" font-size="20.8333" font-family="sans-serif" text-anchor="start">100</text>
<line x1="174.219" y1="335.156" x2="185.156" y2="335.156" stroke="rgba(33,33,33,1.000000)" stroke-width="1.04167"/>
<line x1="1213.28" y1="335.156" x2="1202.34" y2="335.156" stroke="rgba(33,33,33,1.000000)" stroke-width="1.04167"/>
<line x1="174.219" y1="280.469" x2="185.156" y2="280.469" stroke="rgba(33,33,33,1.000000)" stroke-width="1.04167"/>
<line x1="1213.28" y1="280.469" x2="1202.34" y2="280.469" stroke="rgba(33,33,33,1.000000)" stroke-width="1.04167"/>
<line x1="174.219" y1="225.781" x2="185.156" y2="225.781" stroke="rgba(33,33,33,1.000000)" stroke-width="1.04167"/>
<line x1="1213.28" y1="225.781" x2="1202.34" y2="225.781" stroke="rgba(33,33,33,1.000000)" stroke-width="1.04167"/>
<line x1="174.219" y1="169.531" x2="185.156" y2="169.531" stroke="rgba(33,33,33,1.000000)" stroke-width="1.04167"/>
<line x1="1213.28" y1="169.531" x2="1202.34" y2="169.531" stroke="rgba(33,33,33,1.000000)" stroke-width="1.04167"/>
<line x1="174.219" y1="114.844" x2="185.156" y2="114.844" stroke="rgba(33,33,33,1.000000)" stroke-width="1.04167"/>
<line x1="1213.28" y1="114.844" x2="1202.34" y2="114.844" stroke="rgba(33,33,33,1.000000)" stroke-width="1.04167"/>
<line x1="174.219" y1="60.1562" x2="185.156" y2="60.1562" stroke="rgba(33,33,33,1.000000)" stroke-width="1.04167"/>
<line x1="1213.28" y1="60.1562" x2="1202.34" y2="60.1562" stroke="rgba(33,33,33,1.000000)" stroke-width="1.04167"/>
<text x="128.522" y="340.116" fill="rgba(33,33,33,1.000000)" font-size="20.8333" font-family="sans-serif" text-anchor="start">-50</text>
<text x="128.522" y="285.429" fill="rgba(33,33,33,1.000000)" font-size="20.8333" font-family="sans-serif" text-anchor="start">-40</text>
<text x="128.522" y="230.741" fill="rgba(33,33,33,1.000000)" font-size="20.8333" font-family="sans-serif" text-anchor="start">-30</text>
<text x="128.522" y="176.054" fill="rgba(33,33,33,1.000000)" font-size="20.8333" font-family="sans-serif" text-anchor="start">-20</text>
<text x="128.522" y="121.366" fill="rgba(33,33,33,1.000000)" font-size="20.8333" font-family="sans-serif" text-anchor="start">-10</text>
<text x="147.046" y="65.1164" fill="rgba(33,33,33,1.000000)" font-size="20.8333" font-family="sans-serif" text-anchor="start">0</text>
<text x="0" y="0" transform="translate(101.394,274.22) rotate(-90)" fill="rgba(33,33,33,1.000000)" font-size="22.9167" font-family="sans-serif" text-anchor="start">Amplitude (dB)</text>
<polygon points="174.219,717.969 1213.28,717.969 1213.28,442.969 174.219,442.969 " fill="rgba(255,255,255,1.000000)"/>
<polyline points="173.438,443.75 191.049,607.263 208.66,646.051 226.271,660.653 243.882,668.176 261.494,672.743 279.105,675.806 296.716,678.001 314.327,679.651 331.939,680.936 349.55,681.965 367.161,682.807 384.772,683.509 402.383,684.104 419.995,684.614 437.606,685.056 455.217,685.442 472.828,685.784 490.44,686.087 508.051,686.359 525.662,686.603 543.273,686.824 560.885,687.025 578.496,687.209 596.107,687.377 613.718,687.532 631.329,687.675 648.941,687.807 666.552,687.93 684.163,688.045 701.774,688.152 719.386,688.252 736.997,688.345 754.608,688.433 772.219,688.516 789.831,688.594 807.442,688.668 825.053,688.738 842.664,688.804 860.275,688.867 877.887,688.926 895.498,688.983 913.109,689.037 930.72,689.088 948.332,689.137 965.943,689.184 983.554,689.229 1001.17,689.272 1018.78,689.313 1036.39,689.353 1054,689.391 1071.61,689.427 1089.22,689.462 1106.83,689.496 1124.44,689.529 1142.06,689.56 1159.67,689.59 1177.28,689.619 1194.89,689.647 1212.5,689.674 " fill="none" stroke="rgba(16,112,189,1.000000)" stroke-width="1.04167"/>
<line x1="174.219" y1="717.969" x2="1213.28" y2="717.969" stroke="rgba(33,33,33,1.000000)" stroke-width="1.04167"/>
<line x1="174.219" y1="442.969" x2="1213.28" y2="442.969" stroke="rgba(33,33,33,1.000000)" stroke-width="1.04167"/>
<line x1="174.219" y1="717.969" x2="174.219" y2="442.969" stroke="rgba(33,33,33,1.000000)" stroke-width="1.04167"/>
<line x1="1213.28" y1="717.969" x2="1213.28" y2="442.969" stroke="rgba(33,33,33,1.000000)" stroke-width="1.04167"/>
<line x1="174.219" y1="717.969" x2="174.219" y2="707.031" stroke="rgba(33,33,33,1.000000)" stroke-width="1.04167"/>
<line x1="174.219" y1="442.969" x2="174.219" y2="453.906" stroke="rgba(33,33,33,1.000000)" stroke-width="1.04167"/>
<line x1="278.906" y1="717.969" x2="278.906" y2="707.031" stroke="rgba(33,33,33,1.000000)" stroke-width="1.04167"/>
<line x1="278.906" y1="442.969" x2="278.906" y2="453.906" stroke="rgba(33,33,33,1.000000)" stroke-width="1.04167"/>
<line x1="382.031" y1="717.969" x2="382.031" y2="707.031" stroke="rgba(33,33,33,1.000000)" stroke-width="1.04167"/>
<line x1="382.031" y1="442.969" x2="382.031" y2="453.906" stroke="rgba(33,33,33,1.000000)" stroke-width="1.04167"/>
<line x1="486.719" y1="717.969" x2="486.719" y2="707.031" stroke="rgba(33,33,33,1.000000)" stroke-width="1.04167"/>
<line x1="486.719" y1="442.969" x2="486.719" y2="453.906" stroke="rgba(33,33,33,1.000000)" stroke-width="1.04167"/>
<line x1="589.844" y1="717.969" x2="589.844" y2="707.031" stroke="rgba(33,33,33,1.000000)" stroke-width="1.04167"/>
<line x1="589.844" y1="442.969" x2="589.844" y2="453.906" stroke="rgba(33,33,33,1.000000)" stroke-width="1.04167"/>
<line x1="694.531" y1="717.969" x2="694.531" y2="707.031" stroke="rgba(33,33,33,1.000000)" stroke-width="1.04167"/>
<line x1="694.531" y1="442.969" x2="694.531" y2="453.906" stroke="rgba(33,33,33,1.000000)" stroke-width="1.04167"/>
<line x1="797.656" y1="717.969" x2="797.656" y2="707.031" stroke="rgba(33,33,33,1.000000)" stroke-width="1.04167"/>
<line x1="797.656" y1="442.969" x2="797.656" y2="453.906" stroke="rgba(33,33,33,1.000000)" stroke-width="1.04167"/>
<line x1="902.344" y1="717.969" x2="902.344" y2="707.031" stroke="rgba(33,33,33,1.000000)" stroke-width="1.04167"/>
<line x1="902.344" y1="442.969" x2="902.344" y2="453.906" stroke="rgba(33,33,33,1.000000)" stroke-width="1.04167"/>
<line x1="1005.47" y1="717.969" x2="1005.47" y2="707.031" stroke="rgba(33,33,33,1.000000)" stroke-width="1.04167"/>
<line x1="1005.47" y1="442.969" x2="1005.47" y2="453.906" stroke="rgba(33,33,33,1.000000)" stroke-width="1.04167"/>
<line x1="1110.16" y1="717.969" x2="1110.16" y2="707.031" stroke="rgba(33,33,33,1.000000)" stroke-width="1.04167"/>
<line x1="1110.16" y1="442.969" x2="1110.16" y2="453.906" stroke="rgba(33,33,33,1.000000)" stroke-width="1.04167"/>
<line x1="1213.28" y1="717.969" x2="1213.28" y2="707.031" stroke="rgba(33,33,33,1.000000)" stroke-width="1.04167"/>
<line x1="1213.28" y1="442.969" x2="1213.28" y2="453.906" stroke="rgba(33,33,33,1.000000)" stroke-width="1.04167"/>
<text x="168.425" y="736.429" fill="rgba(33,33,33,1.000000)" font-size="20.8333" font-family="sans-serif" text-anchor="start">0</text>
<text x="265.757" y="736.429" fill="rgba(33,33,33,1.000000)" font-size="20.8333" font-family="sans-serif" text-anchor="start">10</text>
<text x="370.445" y="736.429" fill="rgba(33,33,33,1.000000)" font-size="20.8333" font-family="sans-serif" text-anchor="start">20</text>
<text x="473.57" y="736.429" fill="rgba(33,33,33,1.000000)" font-size="20.8333" font-family="sans-serif" text-anchor="start">30</text>
<text x="578.257" y="736.429" fill="rgba(33,33,33,1.000000)" font-size="20.8333" font-family="sans-serif" text-anchor="start">40</text>
<text x="681.382" y="736.429" fill="rgba(33,33,33,1.000000)" font-size="20.8333" font-family="sans-serif" text-anchor="start">50</text>
<text x="786.07" y="736.429" fill="rgba(33,33,33,1.000000)" font-size="20.8333" font-family="sans-serif" text-anchor="start">60</text>
<text x="889.195" y="736.429" fill="rgba(33,33,33,1.000000)" font-size="20.8333" font-family="sans-serif" text-anchor="start">70</text>
<text x="993.882" y="736.429" fill="rgba(33,33,33,1.000000)" font-size="20.8333" font-family="sans-serif" text-anchor="start">80</text>
<text x="1097.01" y="736.429" fill="rgba(33,33,33,1.000000)" font-size="20.8333" font-family="sans-serif" text-anchor="start">90</text>
<text x="1195.9" y="736.429" fill="rgba(33,33,33,1.000000)" font-size="20.8333" font-family="sans-serif" text-anchor="start">100</text>
<line x1="174.219" y1="717.969" x2="185.156" y2="717.969" stroke="rgba(33,33,33,1.000000)" stroke-width="1.04167"/>
<line x1="1213.28" y1="717.969" x2="1202.34" y2="717.969" stroke="rgba(33,33,33,1.000000)" stroke-width="1.04167"/>
<line x1="174.219" y1="663.281" x2="185.156" y2="663.281" stroke="rgba(33,33,33,1.000000)" stroke-width="1.04167"/>
<line x1="1213.28" y1="663.281" x2="1202.34" y2="663.281" stroke="rgba(33,33,33,1.000000)" stroke-width="1.04167"/>
<line x1="174.219" y1="608.594" x2="185.156" y2="608.594" stroke="rgba(33,33,33,1.000000)" stroke-width="1.04167"/>
<line x1="1213.28" y1="608.594" x2="1202.34" y2="608.594" stroke="rgba(33,33,33,1.000000)" stroke-width="1.04167"/>
<line x1="174.219" y1="552.344" x2="185.156" y2="552.344" stroke="rgba(33,33,33,1.000000)" stroke-width="1.04167"/>
<line x1="1213.28" y1="552.344" x2="1202.34" y2="552.344" stroke="rgba(33,33,33,1.000000)" stroke-width="1.04167"/>
<line x1="174.219" y1="497.656" x2="185.156" y2="497.656" stroke="rgba(33,33,33,1.000000)" stroke-width="1.04167"/>
<line x1="1213.28" y1="497.656" x2="1202.34" y2="497.656" stroke="rgba(33,33,33,1.000000)" stroke-width="1.04167"/>
<line x1="174.219" y1="442.969" x2="185.156" y2="442.969" stroke="rgba(33,33,33,1.000000)" stroke-width="1.04167"/>
<line x1="1213.28" y1="442.969" x2="1202.34" y2="442.969" stroke="rgba(33,33,33,1.000000)" stroke-width="1.04167"/>
<text x="116.936" y="722.929" fill="rgba(33,33,33,1.000000)" font-size="20.8333" font-family="sans-serif" text-anchor="start">-100</text>
<text x="128.522" y="668.241" fill="rgba(33,33,33,1.000000)" font-size="20.8333" font-family="sans-serif" text-anchor="start">-80</text>
<text x="128.522" y="613.554" fill="rgba(33,33,33,1.000000)" font-size="20.8333" font-family="sans-serif" text-anchor="start">-60</text>
<text x="128.522" y="558.866" fill="rgba(33,33,33,1.000000)" font-size="20.8333" font-family="sans-serif" text-anchor="start">-40</text>
<text x="128.522" y="504.179" fill="rgba(33,33,33,1.000000)" font-size="20.8333" font-family="sans-serif" text-anchor="start">-20</text>
<text x="147.046" y="447.929" fill="rgba(33,33,33,1.000000)" font-size="20.8333" font-family="sans-serif" text-anchor="start">0</text>
<text x="613.232" y="769.062" fill="rgba(33,33,33,1.000000)" font-size="22.9167" font-family="sans-serif" text-anchor="start">Frequency (Hz)</text>
<text x="0" y="0" transform="translate(88.8936,665.962) rotate(-90)" fill="rgba(33,33,33,1.000000)" font-size="22.9167" font-family="sans-serif" text-anchor="start">Phase (degrees)</text>
</svg>
