<svg width="859.52" height="517.12" viewBox="0 0 1343 808" xmlns="http://www.w3.org/2000/svg">
<rect x="0" y="0" width="1343" height="808" fill="#ffffff"/>
<rect x="0" y="0" width="1342.19" height="807.812" fill="rgba(255,255,255,1.000000)"/>
<polygon points="133.594,725.781 978.906,725.781 978.906,241.406 133.594,241.406 " fill="rgba(255,255,255,1.000000)"/>
<circle cx="581.46" cy="447.341" r="6.25" fill="rgba(17,113,190,1.000000)" stroke="rgba(17,113,190,1.000000)" stroke-width="1.04167"/>
<circle cx="734.173" cy="484.994" r="6.25" fill="rgba(17,113,190,1.000000)" stroke="rgba(17,113,190,1.000000)" stroke-width="1.04167"/>
<circle cx="251.99" cy="489.485" r="6.25" fill="rgba(17,113,190,1.000000)" stroke="rgba(17,113,190,1.000000)" stroke-width="1.04167"/>
<circle cx="619.691" cy="428.272" r="6.25" fill="rgba(17,113,190,1.000000)" stroke="rgba(17,113,190,1.000000)" stroke-width="1.04167"/>
<circle cx="555.67" cy="457.84" r="6.25" fill="rgba(17,113,190,1.000000)" stroke="rgba(17,113,190,1.000000)" stroke-width="1.04167"/>
<circle cx="364.05" cy="486.712" r="6.25" fill="rgba(17,113,190,1.000000)" stroke="rgba(17,113,190,1.000000)" stroke-width="1.04167"/>
<circle cx="467.032" cy="474.5" r="6.25" fill="rgba(17,113,190,1.000000)" stroke="rgba(17,113,190,1.000000)" stroke-width="1.04167"/>
<circle cx="558.481" cy="528.81" r="6.25" fill="rgba(17,113,190,1.000000)" stroke="rgba(17,113,190,1.000000)" stroke-width="1.04167"/>
<circle cx="939.702" cy="369.034" r="6.25" fill="rgba(17,113,190,1.000000)" stroke="rgba(17,113,190,1.000000)" stroke-width="1.04167"/>
<circle cx="844.395" cy="394.91" r="6.25" fill="rgba(17,113,190,1.000000)" stroke="rgba(17,113,190,1.000000)" stroke-width="1.04167"/>
<circle cx="359.079" cy="557.924" r="6.25" fill="rgba(17,113,190,1.000000)" stroke="rgba(17,113,190,1.000000)" stroke-width="1.04167"/>
<circle cx="875.673" cy="264.205" r="6.25" fill="rgba(17,113,190,1.000000)" stroke="rgba(17,113,190,1.000000)" stroke-width="1.04167"/>
<circle cx="603.578" cy="511.67" r="6.25" fill="rgba(17,113,190,1.000000)" stroke="rgba(17,113,190,1.000000)" stroke-width="1.04167"/>
<circle cx="510.686" cy="511.824" r="6.25" fill="rgba(17,113,190,1.000000)" stroke="rgba(17,113,190,1.000000)" stroke-width="1.04167"/>
<circle cx="602.322" cy="501.112" r="6.25" fill="rgba(17,113,190,1.000000)" stroke="rgba(17,113,190,1.000000)" stroke-width="1.04167"/>
<circle cx="493.967" cy="562.573" r="6.25" fill="rgba(17,113,190,1.000000)" stroke="rgba(17,113,190,1.000000)" stroke-width="1.04167"/>
<circle cx="503.489" cy="494.425" r="6.25" fill="rgba(17,113,190,1.000000)" stroke="rgba(17,113,190,1.000000)" stroke-width="1.04167"/>
<circle cx="693.623" cy="446.094" r="6.25" fill="rgba(17,113,190,1.000000)" stroke="rgba(17,113,190,1.000000)" stroke-width="1.04167"/>
<circle cx="684.12" cy="328.526" r="6.25" fill="rgba(17,113,190,1.000000)" stroke="rgba(17,113,190,1.000000)" stroke-width="1.04167"/>
<circle cx="685.081" cy="446.841" r="6.25" fill="rgba(17,113,190,1.000000)" stroke="rgba(17,113,190,1.000000)" stroke-width="1.04167"/>
<circle cx="597.227" cy="526.03" r="6.25" fill="rgba(17,113,190,1.000000)" stroke="rgba(17,113,190,1.000000)" stroke-width="1.04167"/>
<circle cx="375.856" cy="410.837" r="6.25" fill="rgba(17,113,190,1.000000)" stroke="rgba(17,113,190,1.000000)" stroke-width="1.04167"/>
<circle cx="602.616" cy="371.271" r="6.25" fill="rgba(17,113,190,1.000000)" stroke="rgba(17,113,190,1.000000)" stroke-width="1.04167"/>
<circle cx="710.18" cy="438.447" r="6.25" fill="rgba(17,113,190,1.000000)" stroke="rgba(17,113,190,1.000000)" stroke-width="1.04167"/>
<circle cx="575.714" cy="561.574" r="6.25" fill="rgba(17,113,190,1.000000)" stroke="rgba(17,113,190,1.000000)" stroke-width="1.04167"/>
<circle cx="640.017" cy="472.626" r="6.25" fill="rgba(17,113,190,1.000000)" stroke="rgba(17,113,190,1.000000)" stroke-width="1.04167"/>
<circle cx="603.752" cy="463.642" r="6.25" fill="rgba(17,113,190,1.000000)" stroke="rgba(17,113,190,1.000000)" stroke-width="1.04167"/>
<circle cx="482.365" cy="469.185" r="6.25" fill="rgba(17,113,190,1.000000)" stroke="rgba(17,113,190,1.000000)" stroke-width="1.04167"/>
<circle cx="552.737" cy="485.088" r="6.25" fill="rgba(17,113,190,1.000000)" stroke="rgba(17,113,190,1.000000)" stroke-width="1.04167"/>
<circle cx="425.362" cy="474.155" r="6.25" fill="rgba(17,113,190,1.000000)" stroke="rgba(17,113,190,1.000000)" stroke-width="1.04167"/>
<circle cx="622.781" cy="421.743" r="6.25" fill="rgba(17,113,190,1.000000)" stroke="rgba(17,113,190,1.000000)" stroke-width="1.04167"/>
<circle cx="382.974" cy="599.068" r="6.25" fill="rgba(17,113,190,1.000000)" stroke="rgba(17,113,190,1.000000)" stroke-width="1.04167"/>
<circle cx="392.187" cy="576.284" r="6.25" fill="rgba(17,113,190,1.000000)" stroke="rgba(17,113,190,1.000000)" stroke-width="1.04167"/>
<circle cx="422.744" cy="553.851" r="6.25" fill="rgba(17,113,190,1.000000)" stroke="rgba(17,113,190,1.000000)" stroke-width="1.04167"/>
<circle cx="171.236" cy="609.449" r="6.25" fill="rgba(17,113,190,1.000000)" stroke="rgba(17,113,190,1.000000)" stroke-width="1.04167"/>
<circle cx="687.577" cy="450.904" r="6.25" fill="rgba(17,113,190,1.000000)" stroke="rgba(17,113,190,1.000000)" stroke-width="1.04167"/>
<circle cx="556.427" cy="465.805" r="6.25" fill="rgba(17,113,190,1.000000)" stroke="rgba(17,113,190,1.000000)" stroke-width="1.04167"/>
<circle cx="429.173" cy="704.545" r="6.25" fill="rgba(17,113,190,1.000000)" stroke="rgba(17,113,190,1.000000)" stroke-width="1.04167"/>
<circle cx="679.556" cy="462.267" r="6.25" fill="rgba(17,113,190,1.000000)" stroke="rgba(17,113,190,1.000000)" stroke-width="1.04167"/>
<circle cx="316.474" cy="451.699" r="6.25" fill="rgba(17,113,190,1.000000)" stroke="rgba(17,113,190,1.000000)" stroke-width="1.04167"/>
<circle cx="506.069" cy="551.983" r="6.25" fill="rgba(17,113,190,1.000000)" stroke="rgba(17,113,190,1.000000)" stroke-width="1.04167"/>
<circle cx="489.669" cy="423.282" r="6.25" fill="rgba(17,113,190,1.000000)" stroke="rgba(17,113,190,1.000000)" stroke-width="1.04167"/>
<circle cx="555.722" cy="443.484" r="6.25" fill="rgba(17,113,190,1.000000)" stroke="rgba(17,113,190,1.000000)" stroke-width="1.04167"/>
<circle cx="554.974" cy="468.98" r="6.25" fill="rgba(17,113,190,1.000000)" stroke="rgba(17,113,190,1.000000)" stroke-width="1.04167"/>
<circle cx="416.22" cy="494.137" r="6.25" fill="rgba(17,113,190,1.000000)" stroke="rgba(17,113,190,1.000000)" stroke-width="1.04167"/>
<circle cx="514.574" cy="582.795" r="6.25" fill="rgba(17,113,190,1.000000)" stroke="rgba(17,113,190,1.000000)" stroke-width="1.04167"/>
<circle cx="498.69" cy="488.604" r="6.25" fill="rgba(17,113,190,1.000000)" stroke="rgba(17,113,190,1.000000)" stroke-width="1.04167"/>
<circle cx="592.068" cy="349.641" r="6.25" fill="rgba(17,113,190,1.000000)" stroke="rgba(17,113,190,1.000000)" stroke-width="1.04167"/>
<circle cx="646.917" cy="434.482" r="6.25" fill="rgba(17,113,190,1.000000)" stroke="rgba(17,113,190,1.000000)" stroke-width="1.04167"/>
<circle cx="648.803" cy="437.746" r="6.25" fill="rgba(17,113,190,1.000000)" stroke="rgba(17,113,190,1.000000)" stroke-width="1.04167"/>
<circle cx="416.364" cy="555.194" r="6.25" fill="rgba(17,113,190,1.000000)" stroke="rgba(17,113,190,1.000000)" stroke-width="1.04167"/>
<circle cx="527.229" cy="476.949" r="6.25" fill="rgba(17,113,190,1.000000)" stroke="rgba(17,113,190,1.000000)" stroke-width="1.04167"/>
<circle cx="375.074" cy="502.45" r="6.25" fill="rgba(17,113,190,1.000000)" stroke="rgba(17,113,190,1.000000)" stroke-width="1.04167"/>
<circle cx="386.928" cy="486.163" r="6.25" fill="rgba(17,113,190,1.000000)" stroke="rgba(17,113,190,1.000000)" stroke-width="1.04167"/>
<circle cx="517.308" cy="502.552" r="6.25" fill="rgba(17,113,190,1.000000)" stroke="rgba(17,113,190,1.000000)" stroke-width="1.04167"/>
<circle cx="698.681" cy="442.155" r="6.25" fill="rgba(17,113,190,1.000000)" stroke="rgba(17,113,190,1.000000)" stroke-width="1.04167"/>
<circle cx="427.437" cy="368.234" r="6.25" fill="rgba(17,113,190,1.000000)" stroke="rgba(17,113,190,1.000000)" stroke-width="1.04167"/>
<circle cx="561.869" cy="615.628" r="6.25" fill="rgba(17,113,190,1.000000)" stroke="rgba(17,113,190,1.000000)" stroke-width="1.04167"/>
<circle cx="491.538" cy="336.387" r="6.25" fill="rgba(17,113,190,1.000000)" stroke="rgba(17,113,190,1.000000)" stroke-width="1.04167"/>
<circle cx="649.756" cy="417.734" r="6.25" fill="rgba(17,113,190,1.000000)" stroke="rgba(17,113,190,1.000000)" stroke-width="1.04167"/>
<circle cx="389.807" cy="447.11" r="6.25" fill="rgba(17,113,190,1.000000)" stroke="rgba(17,113,190,1.000000)" stroke-width="1.04167"/>
<circle cx="521.951" cy="587.314" r="6.25" fill="rgba(17,113,190,1.000000)" stroke="rgba(17,113,190,1.000000)" stroke-width="1.04167"/>
<circle cx="583.211" cy="498.388" r="6.25" fill="rgba(17,113,190,1.000000)" stroke="rgba(17,113,190,1.000000)" stroke-width="1.04167"/>
<circle cx="647.783" cy="459.327" r="6.25" fill="rgba(17,113,190,1.000000)" stroke="rgba(17,113,190,1.000000)" stroke-width="1.04167"/>
<circle cx="700.045" cy="397.832" r="6.25" fill="rgba(17,113,190,1.000000)" stroke="rgba(17,113,190,1.000000)" stroke-width="1.04167"/>
<circle cx="528.239" cy="585.938" r="6.25" fill="rgba(17,113,190,1.000000)" stroke="rgba(17,113,190,1.000000)" stroke-width="1.04167"/>
<circle cx="342.384" cy="495.748" r="6.25" fill="rgba(17,113,190,1.000000)" stroke="rgba(17,113,190,1.000000)" stroke-width="1.04167"/>
<circle cx="430.661" cy="583.056" r="6.25" fill="rgba(17,113,190,1.000000)" stroke="rgba(17,113,190,1.000000)" stroke-width="1.04167"/>
<circle cx="393.045" cy="508.442" r="6.25" fill="rgba(17,113,190,1.000000)" stroke="rgba(17,113,190,1.000000)" stroke-width="1.04167"/>
<circle cx="795.033" cy="355.655" r="6.25" fill="rgba(17,113,190,1.000000)" stroke="rgba(17,113,190,1.000000)" stroke-width="1.04167"/>
<circle cx="445.588" cy="476.19" r="6.25" fill="rgba(17,113,190,1.000000)" stroke="rgba(17,113,190,1.000000)" stroke-width="1.04167"/>
<circle cx="606.249" cy="380.378" r="6.25" fill="rgba(17,113,190,1.000000)" stroke="rgba(17,113,190,1.000000)" stroke-width="1.04167"/>
<circle cx="495.445" cy="416.826" r="6.25" fill="rgba(17,113,190,1.000000)" stroke="rgba(17,113,190,1.000000)" stroke-width="1.04167"/>
<circle cx="622.806" cy="491.245" r="6.25" fill="rgba(17,113,190,1.000000)" stroke="rgba(17,113,190,1.000000)" stroke-width="1.04167"/>
<circle cx="428.005" cy="485.83" r="6.25" fill="rgba(17,113,190,1.000000)" stroke="rgba(17,113,190,1.000000)" stroke-width="1.04167"/>
<circle cx="352.907" cy="587.156" r="6.25" fill="rgba(17,113,190,1.000000)" stroke="rgba(17,113,190,1.000000)" stroke-width="1.04167"/>
<circle cx="350.539" cy="612.983" r="6.25" fill="rgba(17,113,190,1.000000)" stroke="rgba(17,113,190,1.000000)" stroke-width="1.04167"/>
<circle cx="575.631" cy="399.558" r="6.25" fill="rgba(17,113,190,1.000000)" stroke="rgba(17,113,190,1.000000)" stroke-width="1.04167"/>
<circle cx="497.218" cy="483.382" r="6.25" fill="rgba(17,113,190,1.000000)" stroke="rgba(17,113,190,1.000000)" stroke-width="1.04167"/>
<circle cx="495.017" cy="487.668" r="6.25" fill="rgba(17,113,190,1.000000)" stroke="rgba(17,113,190,1.000000)" stroke-width="1.04167"/>
<circle cx="685.33" cy="369.439" r="6.25" fill="rgba(17,113,190,1.000000)" stroke="rgba(17,113,190,1.000000)" stroke-width="1.04167"/>
<circle cx="552.468" cy="428.123" r="6.25" fill="rgba(17,113,190,1.000000)" stroke="rgba(17,113,190,1.000000)" stroke-width="1.04167"/>
<circle cx="541.42" cy="447.538" r="6.25" fill="rgba(17,113,190,1.000000)" stroke="rgba(17,113,190,1.000000)" stroke-width="1.04167"/>
<circle cx="705.169" cy="341.223" r="6.25" fill="rgba(17,113,190,1.000000)" stroke="rgba(17,113,190,1.000000)" stroke-width="1.04167"/>
<circle cx="423.337" cy="442.309" r="6.25" fill="rgba(17,113,190,1.000000)" stroke="rgba(17,113,190,1.000000)" stroke-width="1.04167"/>
<circle cx="600.187" cy="438.275" r="6.25" fill="rgba(17,113,190,1.000000)" stroke="rgba(17,113,190,1.000000)" stroke-width="1.04167"/>
<circle cx="616.5" cy="495.658" r="6.25" fill="rgba(17,113,190,1.000000)" stroke="rgba(17,113,190,1.000000)" stroke-width="1.04167"/>
<circle cx="489.402" cy="529.026" r="6.25" fill="rgba(17,113,190,1.000000)" stroke="rgba(17,113,190,1.000000)" stroke-width="1.04167"/>
<circle cx="543.524" cy="390.826" r="6.25" fill="rgba(17,113,190,1.000000)" stroke="rgba(17,113,190,1.000000)" stroke-width="1.04167"/>
<circle cx="380.762" cy="623.766" r="6.25" fill="rgba(17,113,190,1.000000)" stroke="rgba(17,113,190,1.000000)" stroke-width="1.04167"/>
<circle cx="382.87" cy="517.363" r="6.25" fill="rgba(17,113,190,1.000000)" stroke="rgba(17,113,190,1.000000)" stroke-width="1.04167"/>
<circle cx="530.471" cy="603.88" r="6.25" fill="rgba(17,113,190,1.000000)" stroke="rgba(17,113,190,1.000000)" stroke-width="1.04167"/>
<circle cx="603.207" cy="385.38" r="6.25" fill="rgba(17,113,190,1.000000)" stroke="rgba(17,113,190,1.000000)" stroke-width="1.04167"/>
<circle cx="822.723" cy="333.867" r="6.25" fill="rgba(17,113,190,1.000000)" stroke="rgba(17,113,190,1.000000)" stroke-width="1.04167"/>
<circle cx="439.546" cy="499.622" r="6.25" fill="rgba(17,113,190,1.000000)" stroke="rgba(17,113,190,1.000000)" stroke-width="1.04167"/>
<circle cx="540.185" cy="475.952" r="6.25" fill="rgba(17,113,190,1.000000)" stroke="rgba(17,113,190,1.000000)" stroke-width="1.04167"/>
<circle cx="508.396" cy="645.948" r="6.25" fill="rgba(17,113,190,1.000000)" stroke="rgba(17,113,190,1.000000)" stroke-width="1.04167"/>
<circle cx="290.377" cy="503.159" r="6.25" fill="rgba(17,113,190,1.000000)" stroke="rgba(17,113,190,1.000000)" stroke-width="1.04167"/>
<circle cx="466.398" cy="638.242" r="6.25" fill="rgba(17,113,190,1.000000)" stroke="rgba(17,113,190,1.000000)" stroke-width="1.04167"/>
<circle cx="306.676" cy="691.879" r="6.25" fill="rgba(17,113,190,1.000000)" stroke="rgba(17,113,190,1.000000)" stroke-width="1.04167"/>
<circle cx="617.123" cy="444.138" r="6.25" fill="rgba(17,113,190,1.000000)" stroke="rgba(17,113,190,1.000000)" stroke-width="1.04167"/>
<circle cx="413.492" cy="570.291" r="6.25" fill="rgba(17,113,190,1.000000)" stroke="rgba(17,113,190,1.000000)" stroke-width="1.04167"/>
<circle cx="529.907" cy="446.71" r="6.25" fill="rgba(17,113,190,1.000000)" stroke="rgba(17,113,190,1.000000)" stroke-width="1.04167"/>
<circle cx="453.962" cy="450.497" r="6.25" fill="rgba(17,113,190,1.000000)" stroke="rgba(17,113,190,1.000000)" stroke-width="1.04167"/>
<circle cx="553.874" cy="410.185" r="6.25" fill="rgba(17,113,190,1.000000)" stroke="rgba(17,113,190,1.000000)" stroke-width="1.04167"/>
<circle cx="447.388" cy="543.551" r="6.25" fill="rgba(17,113,190,1.000000)" stroke="rgba(17,113,190,1.000000)" stroke-width="1.04167"/>
<circle cx="575.84" cy="431.191" r="6.25" fill="rgba(17,113,190,1.000000)" stroke="rgba(17,113,190,1.000000)" stroke-width="1.04167"/>
<circle cx="605.223" cy="446.124" r="6.25" fill="rgba(17,113,190,1.000000)" stroke="rgba(17,113,190,1.000000)" stroke-width="1.04167"/>
<circle cx="719.8" cy="365.358" r="6.25" fill="rgba(17,113,190,1.000000)" stroke="rgba(17,113,190,1.000000)" stroke-width="1.04167"/>
<circle cx="495.244" cy="448.205" r="6.25" fill="rgba(17,113,190,1.000000)" stroke="rgba(17,113,190,1.000000)" stroke-width="1.04167"/>
<circle cx="266.186" cy="488.891" r="6.25" fill="rgba(17,113,190,1.000000)" stroke="rgba(17,113,190,1.000000)" stroke-width="1.04167"/>
<circle cx="419.199" cy="514.25" r="6.25" fill="rgba(17,113,190,1.000000)" stroke="rgba(17,113,190,1.000000)" stroke-width="1.04167"/>
<circle cx="677.706" cy="442.14" r="6.25" fill="rgba(17,113,190,1.000000)" stroke="rgba(17,113,190,1.000000)" stroke-width="1.04167"/>
<circle cx="391.8" cy="446.032" r="6.25" fill="rgba(17,113,190,1.000000)" stroke="rgba(17,113,190,1.000000)" stroke-width="1.04167"/>
<circle cx="631.329" cy="587.001" r="6.25" fill="rgba(17,113,190,1.000000)" stroke="rgba(17,113,190,1.000000)" stroke-width="1.04167"/>
<circle cx="532.73" cy="506.973" r="6.25" fill="rgba(17,113,190,1.000000)" stroke="rgba(17,113,190,1.000000)" stroke-width="1.04167"/>
<circle cx="687.378" cy="514.284" r="6.25" fill="rgba(17,113,190,1.000000)" stroke="rgba(17,113,190,1.000000)" stroke-width="1.04167"/>
<circle cx="287.093" cy="568.328" r="6.25" fill="rgba(17,113,190,1.000000)" stroke="rgba(17,113,190,1.000000)" stroke-width="1.04167"/>
<circle cx="494.823" cy="440.824" r="6.25" fill="rgba(17,113,190,1.000000)" stroke="rgba(17,113,190,1.000000)" stroke-width="1.04167"/>
<circle cx="375.813" cy="462.689" r="6.25" fill="rgba(17,113,190,1.000000)" stroke="rgba(17,113,190,1.000000)" stroke-width="1.04167"/>
<circle cx="860.72" cy="448.208" r="6.25" fill="rgba(17,113,190,1.000000)" stroke="rgba(17,113,190,1.000000)" stroke-width="1.04167"/>
<circle cx="615.338" cy="481.37" r="6.25" fill="rgba(17,113,190,1.000000)" stroke="rgba(17,113,190,1.000000)" stroke-width="1.04167"/>
<circle cx="680.578" cy="422.382" r="6.25" fill="rgba(17,113,190,1.000000)" stroke="rgba(17,113,190,1.000000)" stroke-width="1.04167"/>
<circle cx="393.446" cy="532.195" r="6.25" fill="rgba(17,113,190,1.000000)" stroke="rgba(17,113,190,1.000000)" stroke-width="1.04167"/>
<circle cx="462.905" cy="472.974" r="6.25" fill="rgba(17,113,190,1.000000)" stroke="rgba(17,113,190,1.000000)" stroke-width="1.04167"/>
<circle cx="486.014" cy="459.897" r="6.25" fill="rgba(17,113,190,1.000000)" stroke="rgba(17,113,190,1.000000)" stroke-width="1.04167"/>
<circle cx="647.525" cy="502.853" r="6.25" fill="rgba(17,113,190,1.000000)" stroke="rgba(17,113,190,1.000000)" stroke-width="1.04167"/>
<circle cx="485.378" cy="498.521" r="6.25" fill="rgba(17,113,190,1.000000)" stroke="rgba(17,113,190,1.000000)" stroke-width="1.04167"/>
<circle cx="600.767" cy="596.209" r="6.25" fill="rgba(17,113,190,1.000000)" stroke="rgba(17,113,190,1.000000)" stroke-width="1.04167"/>
<circle cx="276.381" cy="469.511" r="6.25" fill="rgba(17,113,190,1.000000)" stroke="rgba(17,113,190,1.000000)" stroke-width="1.04167"/>
<circle cx="476.426" cy="531.199" r="6.25" fill="rgba(17,113,190,1.000000)" stroke="rgba(17,113,190,1.000000)" stroke-width="1.04167"/>
<circle cx="421.085" cy="585.165" r="6.25" fill="rgba(17,113,190,1.000000)" stroke="rgba(17,113,190,1.000000)" stroke-width="1.04167"/>
<circle cx="332.315" cy="546.96" r="6.25" fill="rgba(17,113,190,1.000000)" stroke="rgba(17,113,190,1.000000)" stroke-width="1.04167"/>
<circle cx="577.962" cy="555.771" r="6.25" fill="rgba(17,113,190,1.000000)" stroke="rgba(17,113,190,1.000000)" stroke-width="1.04167"/>
<circle cx="551.337" cy="469.466" r="6.25" fill="rgba(17,113,190,1.000000)" stroke="rgba(17,113,190,1.000000)" stroke-width="1.04167"/>
<circle cx="522.059" cy="513.729" r="6.25" fill="rgba(17,113,190,1.000000)" stroke="rgba(17,113,190,1.000000)" stroke-width="1.04167"/>
<circle cx="360.988" cy="376.761" r="6.25" fill="rgba(17,113,190,1.000000)" stroke="rgba(17,113,190,1.000000)" stroke-width="1.04167"/>
<circle cx="650.95" cy="364.012" r="6.25" fill="rgba(17,113,190,1.000000)" stroke="rgba(17,113,190,1.000000)" stroke-width="1.04167"/>
<circle cx="559.371" cy="632.234" r="6.25" fill="rgba(17,113,190,1.000000)" stroke="rgba(17,113,190,1.000000)" stroke-width="1.04167"/>
<circle cx="482.881" cy="458.024" r="6.25" fill="rgba(17,113,190,1.000000)" stroke="rgba(17,113,190,1.000000)" stroke-width="1.04167"/>
<circle cx="520.812" cy="569.905" r="6.25" fill="rgba(17,113,190,1.000000)" stroke="rgba(17,113,190,1.000000)" stroke-width="1.04167"/>
<circle cx="487.248" cy="503.206" r="6.25" fill="rgba(17,113,190,1.000000)" stroke="rgba(17,113,190,1.000000)" stroke-width="1.04167"/>
<circle cx="311.915" cy="524.846" r="6.25" fill="rgba(17,113,190,1.000000)" stroke="rgba(17,113,190,1.000000)" stroke-width="1.04167"/>
<circle cx="484.461" cy="437.153" r="6.25" fill="rgba(17,113,190,1.000000)" stroke="rgba(17,113,190,1.000000)" stroke-width="1.04167"/>
<circle cx="420.168" cy="523.381" r="6.25" fill="rgba(17,113,190,1.000000)" stroke="rgba(17,113,190,1.000000)" stroke-width="1.04167"/>
<circle cx="402.75" cy="405.039" r="6.25" fill="rgba(17,113,190,1.000000)" stroke="rgba(17,113,190,1.000000)" stroke-width="1.04167"/>
<circle cx="381.874" cy="548.071" r="6.25" fill="rgba(17,113,190,1.000000)" stroke="rgba(17,113,190,1.000000)" stroke-width="1.04167"/>
<circle cx="455.254" cy="473.425" r="6.25" fill="rgba(17,113,190,1.000000)" stroke="rgba(17,113,190,1.000000)" stroke-width="1.04167"/>
<circle cx="282.176" cy="499.909" r="6.25" fill="rgba(17,113,190,1.000000)" stroke="rgba(17,113,190,1.000000)" stroke-width="1.04167"/>
<circle cx="631.715" cy="439.66" r="6.25" fill="rgba(17,113,190,1.000000)" stroke="rgba(17,113,190,1.000000)" stroke-width="1.04167"/>
<circle cx="579.385" cy="401.421" r="6.25" fill="rgba(17,113,190,1.000000)" stroke="rgba(17,113,190,1.000000)" stroke-width="1.04167"/>
<circle cx="515.755" cy="456.597" r="6.25" fill="rgba(17,113,190,1.000000)" stroke="rgba(17,113,190,1.000000)" stroke-width="1.04167"/>
<circle cx="514.018" cy="530.9" r="6.25" fill="rgba(17,113,190,1.000000)" stroke="rgba(17,113,190,1.000000)" stroke-width="1.04167"/>
<circle cx="424.08" cy="624.413" r="6.25" fill="rgba(17,113,190,1.000000)" stroke="rgba(17,113,190,1.000000)" stroke-width="1.04167"/>
<circle cx="638.131" cy="319.637" r="6.25" fill="rgba(17,113,190,1.000000)" stroke="rgba(17,113,190,1.000000)" stroke-width="1.04167"/>
<circle cx="502.42" cy="522.209" r="6.25" fill="rgba(17,113,190,1.000000)" stroke="rgba(17,113,190,1.000000)" stroke-width="1.04167"/>
<circle cx="433.933" cy="494.398" r="6.25" fill="rgba(17,113,190,1.000000)" stroke="rgba(17,113,190,1.000000)" stroke-width="1.04167"/>
<circle cx="677.328" cy="394.897" r="6.25" fill="rgba(17,113,190,1.000000)" stroke="rgba(17,113,190,1.000000)" stroke-width="1.04167"/>
<circle cx="491.634" cy="477.393" r="6.25" fill="rgba(17,113,190,1.000000)" stroke="rgba(17,113,190,1.000000)" stroke-width="1.04167"/>
<circle cx="448.719" cy="557.41" r="6.25" fill="rgba(17,113,190,1.000000)" stroke="rgba(17,113,190,1.000000)" stroke-width="1.04167"/>
<circle cx="483.507" cy="518.44" r="6.25" fill="rgba(17,113,190,1.000000)" stroke="rgba(17,113,190,1.000000)" stroke-width="1.04167"/>
<circle cx="418.217" cy="514.058" r="6.25" fill="rgba(17,113,190,1.000000)" stroke="rgba(17,113,190,1.000000)" stroke-width="1.04167"/>
<circle cx="386.148" cy="416.224" r="6.25" fill="rgba(17,113,190,1.000000)" stroke="rgba(17,113,190,1.000000)" stroke-width="1.04167"/>
<circle cx="815.714" cy="450.666" r="6.25" fill="rgba(17,113,190,1.000000)" stroke="rgba(17,113,190,1.000000)" stroke-width="1.04167"/>
<circle cx="713.156" cy="369.997" r="6.25" fill="rgba(17,113,190,1.000000)" stroke="rgba(17,113,190,1.000000)" stroke-width="1.04167"/>
<circle cx="554.347" cy="446.653" r="6.25" fill="rgba(17,113,190,1.000000)" stroke="rgba(17,113,190,1.000000)" stroke-width="1.04167"/>
<circle cx="370.008" cy="534.959" r="6.25" fill="rgba(17,113,190,1.000000)" stroke="rgba(17,113,190,1.000000)" stroke-width="1.04167"/>
<circle cx="416.15" cy="576.771" r="6.25" fill="rgba(17,113,190,1.000000)" stroke="rgba(17,113,190,1.000000)" stroke-width="1.04167"/>
<circle cx="497.317" cy="502.297" r="6.25" fill="rgba(17,113,190,1.000000)" stroke="rgba(17,113,190,1.000000)" stroke-width="1.04167"/>
<circle cx="611.355" cy="456.876" r="6.25" fill="rgba(17,113,190,1.000000)" stroke="rgba(17,113,190,1.000000)" stroke-width="1.04167"/>
<circle cx="361.186" cy="619.81" r="6.25" fill="rgba(17,113,190,1.000000)" stroke="rgba(17,113,190,1.000000)" stroke-width="1.04167"/>
<circle cx="243.623" cy="542.313" r="6.25" fill="rgba(17,113,190,1.000000)" stroke="rgba(17,113,190,1.000000)" stroke-width="1.04167"/>
<circle cx="347.39" cy="580.579" r="6.25" fill="rgba(17,113,190,1.000000)" stroke="rgba(17,113,190,1.000000)" stroke-width="1.04167"/>
<circle cx="557.407" cy="472.64" r="6.25" fill="rgba(17,113,190,1.000000)" stroke="rgba(17,113,190,1.000000)" stroke-width="1.04167"/>
<circle cx="564.222" cy="442.02" r="6.25" fill="rgba(17,113,190,1.000000)" stroke="rgba(17,113,190,1.000000)" stroke-width="1.04167"/>
<circle cx="571.329" cy="522.72" r="6.25" fill="rgba(17,113,190,1.000000)" stroke="rgba(17,113,190,1.000000)" stroke-width="1.04167"/>
<circle cx="502.766" cy="501.03" r="6.25" fill="rgba(17,113,190,1.000000)" stroke="rgba(17,113,190,1.000000)" stroke-width="1.04167"/>
<circle cx="539.756" cy="448.018" r="6.25" fill="rgba(17,113,190,1.000000)" stroke="rgba(17,113,190,1.000000)" stroke-width="1.04167"/>
<circle cx="462.017" cy="615.713" r="6.25" fill="rgba(17,113,190,1.000000)" stroke="rgba(17,113,190,1.000000)" stroke-width="1.04167"/>
<circle cx="619.673" cy="379.691" r="6.25" fill="rgba(17,113,190,1.000000)" stroke="rgba(17,113,190,1.000000)" stroke-width="1.04167"/>
<circle cx="357.688" cy="361.252" r="6.25" fill="rgba(17,113,190,1.000000)" stroke="rgba(17,113,190,1.000000)" stroke-width="1.04167"/>
<circle cx="571.724" cy="398.359" r="6.25" fill="rgba(17,113,190,1.000000)" stroke="rgba(17,113,190,1.000000)" stroke-width="1.04167"/>
<circle cx="418.125" cy="526.807" r="6.25" fill="rgba(17,113,190,1.000000)" stroke="rgba(17,113,190,1.000000)" stroke-width="1.04167"/>
<circle cx="478.66" cy="460.065" r="6.25" fill="rgba(17,113,190,1.000000)" stroke="rgba(17,113,190,1.000000)" stroke-width="1.04167"/>
<circle cx="583.241" cy="528.105" r="6.25" fill="rgba(17,113,190,1.000000)" stroke="rgba(17,113,190,1.000000)" stroke-width="1.04167"/>
<circle cx="640.535" cy="317.673" r="6.25" fill="rgba(17,113,190,1.000000)" stroke="rgba(17,113,190,1.000000)" stroke-width="1.04167"/>
<circle cx="386.441" cy="452.019" r="6.25" fill="rgba(17,113,190,1.000000)" stroke="rgba(17,113,190,1.000000)" stroke-width="1.04167"/>
<circle cx="666.639" cy="382.978" r="6.25" fill="rgba(17,113,190,1.000000)" stroke="rgba(17,113,190,1.000000)" stroke-width="1.04167"/>
<circle cx="595.889" cy="513.854" r="6.25" fill="rgba(17,113,190,1.000000)" stroke="rgba(17,113,190,1.000000)" stroke-width="1.04167"/>
<circle cx="510.119" cy="458.409" r="6.25" fill="rgba(17,113,190,1.000000)" stroke="rgba(17,113,190,1.000000)" stroke-width="1.04167"/>
<circle cx="495.115" cy="521.193" r="6.25" fill="rgba(17,113,190,1.000000)" stroke="rgba(17,113,190,1.000000)" stroke-width="1.04167"/>
<circle cx="492.478" cy="505.484" r="6.25" fill="rgba(17,113,190,1.000000)" stroke="rgba(17,113,190,1.000000)" stroke-width="1.04167"/>
<circle cx="482.404" cy="525.57" r="6.25" fill="rgba(17,113,190,1.000000)" stroke="rgba(17,113,190,1.000000)" stroke-width="1.04167"/>
<circle cx="520.83" cy="545.076" r="6.25" fill="rgba(17,113,190,1.000000)" stroke="rgba(17,113,190,1.000000)" stroke-width="1.04167"/>
<circle cx="524.158" cy="536.337" r="6.25" fill="rgba(17,113,190,1.000000)" stroke="rgba(17,113,190,1.000000)" stroke-width="1.04167"/>
<circle cx="615.437" cy="463.934" r="6.25" fill="rgba(17,113,190,1.000000)" stroke="rgba(17,113,190,1.000000)" stroke-width="1.04167"/>
<circle cx="698.015" cy="539.822" r="6.25" fill="rgba(17,113,190,1.000000)" stroke="rgba(17,113,190,1.000000)" stroke-width="1.04167"/>
<circle cx="573.124" cy="421.412" r="6.25" fill="rgba(17,113,190,1.000000)" stroke="rgba(17,113,190,1.000000)" stroke-width="1.04167"/>
<circle cx="493.408" cy="492.315" r="6.25" fill="rgba(17,113,190,1.000000)" stroke="rgba(17,113,190,1.000000)" stroke-width="1.04167"/>
<circle cx="591.771" cy="410.034" r="6.25" fill="rgba(17,113,190,1.000000)" stroke="rgba(17,113,190,1.000000)" stroke-width="1.04167"/>
<line x1="133.594" y1="725.781" x2="978.906" y2="725.781" stroke="rgba(33,33,33,1.000000)" stroke-width="1.04167"/>
<line x1="133.594" y1="725.781" x2="133.594" y2="241.406" stroke="rgba(33,33,33,1.000000)" stroke-width="1.04167"/>
<line x1="164.844" y1="725.781" x2="164.844" y2="717.969" stroke="rgba(33,33,33,1.000000)" stroke-width="1.04167"/>
<line x1="283.594" y1="725.781" x2="283.594" y2="717.969" stroke="rgba(33,33,33,1.000000)" stroke-width="1.04167"/>
<line x1="400.781" y1="725.781" x2="400.781" y2="717.969" stroke="rgba(33,33,33,1.000000)" stroke-width="1.04167"/>
<line x1="519.531" y1="725.781" x2="519.531" y2="717.969" stroke="rgba(33,33,33,1.000000)" stroke-width="1.04167"/>
<line x1="636.719" y1="725.781" x2="636.719" y2="717.969" stroke="rgba(33,33,33,1.000000)" stroke-width="1.04167"/>
<line x1="753.906" y1="725.781" x2="753.906" y2="717.969" stroke="rgba(33,33,33,1.000000)" stroke-width="1.04167"/>
<line x1="872.656" y1="725.781" x2="872.656" y2="717.969" stroke="rgba(33,33,33,1.000000)" stroke-width="1.04167"/>
<text x="155.582" y="747.382" fill="rgba(33,33,33,1.000000)" font-size="20.8333" font-family="sans-serif" text-anchor="start">-3</text>
<text x="272.769" y="747.382" fill="rgba(33,33,33,1.000000)" font-size="20.8333" font-family="sans-serif" text-anchor="start">-2</text>
<text x="391.519" y="747.382" fill="rgba(33,33,33,1.000000)" font-size="20.8333" font-family="sans-serif" text-anchor="start">-1</text>
<text x="512.175" y="747.382" fill="rgba(33,33,33,1.000000)" font-size="20.8333" font-family="sans-serif" text-anchor="start">0</text>
<text x="629.363" y="747.382" fill="rgba(33,33,33,1.000000)" font-size="20.8333" font-family="sans-serif" text-anchor="start">1</text>
<text x="748.113" y="747.382" fill="rgba(33,33,33,1.000000)" font-size="20.8333" font-family="sans-serif" text-anchor="start">2</text>
<text x="865.3" y="747.382" fill="rgba(33,33,33,1.000000)" font-size="20.8333" font-family="sans-serif" text-anchor="start">3</text>
<line x1="133.594" y1="677.344" x2="141.406" y2="677.344" stroke="rgba(33,33,33,1.000000)" stroke-width="1.04167"/>
<line x1="133.594" y1="610.156" x2="141.406" y2="610.156" stroke="rgba(33,33,33,1.000000)" stroke-width="1.04167"/>
<line x1="133.594" y1="542.969" x2="141.406" y2="542.969" stroke="rgba(33,33,33,1.000000)" stroke-width="1.04167"/>
<line x1="133.594" y1="477.344" x2="141.406" y2="477.344" stroke="rgba(33,33,33,1.000000)" stroke-width="1.04167"/>
<line x1="133.594" y1="410.156" x2="141.406" y2="410.156" stroke="rgba(33,33,33,1.000000)" stroke-width="1.04167"/>
<line x1="133.594" y1="342.969" x2="141.406" y2="342.969" stroke="rgba(33,33,33,1.000000)" stroke-width="1.04167"/>
<line x1="133.594" y1="277.344" x2="141.406" y2="277.344" stroke="rgba(33,33,33,1.000000)" stroke-width="1.04167"/>
<text x="102.39" y="682.304" fill="rgba(33,33,33,1.000000)" font-size="20.8333" font-family="sans-serif" text-anchor="start">-3</text>
<text x="102.39" y="615.116" fill="rgba(33,33,33,1.000000)" font-size="20.8333" font-family="sans-serif" text-anchor="start">-2</text>
<text x="102.39" y="549.491" fill="rgba(33,33,33,1.000000)" font-size="20.8333" font-family="sans-serif" text-anchor="start">-1</text>
<text x="109.328" y="482.304" fill="rgba(33,33,33,1.000000)" font-size="20.8333" font-family="sans-serif" text-anchor="start">0</text>
<text x="109.328" y="415.116" fill="rgba(33,33,33,1.000000)" font-size="20.8333" font-family="sans-serif" text-anchor="start">1</text>
<text x="109.328" y="349.491" fill="rgba(33,33,33,1.000000)" font-size="20.8333" font-family="sans-serif" text-anchor="start">2</text>
<text x="109.328" y="282.304" fill="rgba(33,33,33,1.000000)" font-size="20.8333" font-family="sans-serif" text-anchor="start">3</text>
<polygon points="133.594,230.469 978.906,230.469 978.906,78.9062 133.594,78.9062 " fill="rgba(255,255,255,1.000000)"/>
<polyline points="164.672,231.25 164.672,226.792 203.55,226.792 203.55,231.25 242.429,231.25 242.429,213.419 281.308,213.419 281.308,204.504 320.187,204.504 320.187,204.504 359.065,204.504 359.065,142.096 397.944,142.096 397.944,146.553 436.823,146.553 436.823,186.673 475.702,186.673 475.702,79.6875 514.581,79.6875 514.581,146.553 553.459,146.553 553.459,124.265 592.338,124.265 592.338,142.096 631.217,142.096 631.217,177.757 670.096,177.757 670.096,168.842 708.974,168.842 708.974,213.419 747.853,213.419 747.853,231.25 786.732,231.25 786.732,217.877 825.611,217.877 825.611,222.335 864.489,222.335 864.489,226.792 903.368,226.792 903.368,226.792 942.247,226.792 942.247,231.25 " fill="none" stroke="rgba(16,112,189,1.000000)" stroke-width="1.04167"/>
<line x1="133.594" y1="230.469" x2="978.906" y2="230.469" stroke="rgba(33,33,33,1.000000)" stroke-width="1.04167"/>
<line x1="133.594" y1="230.469" x2="133.594" y2="78.9062" stroke="rgba(33,33,33,1.000000)" stroke-width="1.04167"/>
<line x1="164.844" y1="230.469" x2="164.844" y2="222.656" stroke="rgba(33,33,33,1.000000)" stroke-width="1.04167"/>
<line x1="283.594" y1="230.469" x2="283.594" y2="222.656" stroke="rgba(33,33,33,1.000000)" stroke-width="1.04167"/>
<line x1="400.781" y1="230.469" x2="400.781" y2="222.656" stroke="rgba(33,33,33,1.000000)" stroke-width="1.04167"/>
<line x1="519.531" y1="230.469" x2="519.531" y2="222.656" stroke="rgba(33,33,33,1.000000)" stroke-width="1.04167"/>
<line x1="636.719" y1="230.469" x2="636.719" y2="222.656" stroke="rgba(33,33,33,1.000000)" stroke-width="1.04167"/>
<line x1="753.906" y1="230.469" x2="753.906" y2="222.656" stroke="rgba(33,33,33,1.000000)" stroke-width="1.04167"/>
<line x1="872.656" y1="230.469" x2="872.656" y2="222.656" stroke="rgba(33,33,33,1.000000)" stroke-width="1.04167"/>
<polygon points="996.094,725.781 1261.72,725.781 1261.72,241.406 996.094,241.406 " fill="rgba(255,255,255,1.000000)"/>
<polyline points="995.312,717.434 1004.17,717.434 1004.17,694.771 1004.17,694.771 1004.17,672.108 995.312,672.108 995.312,649.445 1021.88,649.445 1021.88,626.782 1057.29,626.782 1057.29,604.119 1083.85,604.119 1083.85,581.456 1066.15,581.456 1066.15,558.793 1110.42,558.793 1110.42,536.131 1190.1,536.131 1190.1,513.468 1207.81,513.468 1207.81,490.805 1216.67,490.805 1216.67,468.142 1260.94,468.142 1260.94,445.479 1145.83,445.479 1145.83,422.816 1092.71,422.816 1092.71,400.153 1083.85,400.153 1083.85,377.49 1083.85,377.49 1083.85,354.827 1030.73,354.827 1030.73,332.164 1021.88,332.164 1021.88,309.501 995.312,309.501 995.312,286.838 1004.17,286.838 1004.17,264.176 995.312,264.176 " fill="none" stroke="rgba(16,112,189,1.000000)" stroke-width="1.04167"/>
<line x1="996.094" y1="725.781" x2="1261.72" y2="725.781" stroke="rgba(33,33,33,1.000000)" stroke-width="1.04167"/>
<line x1="996.094" y1="725.781" x2="996.094" y2="241.406" stroke="rgba(33,33,33,1.000000)" stroke-width="1.04167"/>
<line x1="996.094" y1="677.344" x2="1000.78" y2="677.344" stroke="rgba(33,33,33,1.000000)" stroke-width="1.04167"/>
<line x1="996.094" y1="610.156" x2="1000.78" y2="610.156" stroke="rgba(33,33,33,1.000000)" stroke-width="1.04167"/>
<line x1="996.094" y1="542.969" x2="1000.78" y2="542.969" stroke="rgba(33,33,33,1.000000)" stroke-width="1.04167"/>
<line x1="996.094" y1="477.344" x2="1000.78" y2="477.344" stroke="rgba(33,33,33,1.000000)" stroke-width="1.04167"/>
<line x1="996.094" y1="410.156" x2="1000.78" y2="410.156" stroke="rgba(33,33,33,1.000000)" stroke-width="1.04167"/>
<line x1="996.094" y1="342.969" x2="1000.78" y2="342.969" stroke="rgba(33,33,33,1.000000)" stroke-width="1.04167"/>
<line x1="996.094" y1="277.344" x2="1000.78" y2="277.344" stroke="rgba(33,33,33,1.000000)" stroke-width="1.04167"/>
</svg>
